<?xml version="1.0" encoding="utf-8"?>
<!-- Generator: Adobe Illustrator 25.3.0, SVG Export Plug-In . SVG Version: 6.00 Build 0)  -->
<svg version="1.1" xmlns="http://www.w3.org/2000/svg" xmlns:xlink="http://www.w3.org/1999/xlink" x="0px" y="0px"
	 viewBox="0 0 350 130" style="enable-background:new 0 0 350 130;" xml:space="preserve">
<style type="text/css">
	.st0{fill:#FFE6E6;}
	.st1{fill:#FCF7F7;}
	.st2{fill:#233862;}
	.st3{fill:#FFB27D;}
	.st4{fill:#ED985F;}
	.st5{fill:#2C3A64;}
	.st6{fill:#B64C41;}
	.st7{fill:#739AF0;}
	.st8{fill:#AA413E;}
	.st9{fill:#2B478B;}
	.st10{fill:#B56F40;}
	.st11{fill:#99592E;}
	.st12{fill:#EE9849;}
	.st13{fill:#74ACBE;}
	.st14{fill:#578E9B;}
	.st15{fill:#E58638;}
	.st16{fill:#27437C;}
	.st17{fill:#2F5196;}
	.st18{fill:#D9935C;}
	.st19{fill:#4A75CB;}
	.st20{fill:#CB7D45;}
	.st21{fill:#FFA412;}
	.st22{fill:#163560;}
	.st23{fill:#5FABB7;}
	.st24{fill:#EF9E67;}
	.st25{fill:#A53D38;}
	.st26{fill:#C45446;}
	.st27{fill:#912F2F;}
	.st28{fill:#BC3F3F;}
	.st29{fill:#4A82D3;}
	.st30{fill:#E8945B;}
	.st31{fill:#1F396D;}
	.st32{fill:#C65447;}
	.st33{fill:#B2443B;}
	.st34{fill:#35488B;}
	.st35{fill:#F99746;}
	.st36{fill:#ED7D2B;}
	.st37{fill:#FFFFFF;}
	.st38{fill:#F1A34F;}
	.st39{fill:#D86713;}
	.st40{fill:#466AA5;}
	.st41{fill:#F4A671;}
	.st42{fill:#E2AF64;}
	.st43{fill:#EDBD77;}
	.st44{fill:#FFCF83;}
	.st45{fill:#FFF2E9;}
	.st46{fill:#0F2949;}
	.st47{fill:#C8D9E8;}
</style>
<g id="Layer_2">
	<rect class="st0" width="350" height="130.1"/>
	<path class="st1" d="M350.5,83.3c-148.8-36.3-207.2,20.8-350,0l0-82.7h350V83.3z"/>
</g>
<g id="_x3C_Layer_x3E_">
	<g>
		<g>
			<path class="st2" d="M248.9,130.1c0,0,0-1.6,0.2-2.1c0.2-0.5,1-2.6,1-2.6h3.2c0,0,0.6,1.9,0.6,2.6c0,0.6,0,2.2,0,2.2L248.9,130.1
				L248.9,130.1z"/>
			<path class="st2" d="M269.3,130.1c0,0,0-1.6-0.2-2.1c-0.2-0.5-1-2.6-1-2.6h-3.2c0,0-0.6,1.9-0.6,2.6c0,0.6,0,2.2,0,2.2
				L269.3,130.1L269.3,130.1z"/>
			<path class="st3" d="M256.4,42c0,0-0.1,3.5-0.6,5.1l-3.5,2.5l13.3,2l-3.2-4.4c0,0-1-4.7-0.5-6.4C262.5,38.9,256.4,42,256.4,42z"
				/>
			<path class="st4" d="M256.4,42.4c0,0,1.1,2.5,3,2.5c2-0.1,2.4-2.3,2.4-2.3L256.4,42.4z"/>
			<path class="st5" d="M255.2,40.4c0,0-0.6-3.2-1.1-4.2c-0.4-1-0.8-5.3,4.1-5.5c0,0,1.9,0.2,2.9-0.4c0,0,0,0.6-0.3,0.9
				c0,0,1.7-0.4,3.1,1.1c1.3,1.5-0.9,6.7-0.8,7.9L255.2,40.4z"/>
			<path class="st3" d="M259.2,43.9c-1.4,0-4.1-1.9-4.1-4.3v-3.7c0-0.9,0.6-1.6,1.3-1.6h5.5c0.7,0,1.3,0.7,1.3,1.6v3.5
				C263.3,41.9,260.9,44,259.2,43.9z"/>
			<path class="st5" d="M255.1,37.9c0,0,0-2.2,1.8-2.6c1.8-0.3,5.7,1.1,6.3-0.5c0.6-1.6-7.6-1.6-8-0.6
				C254.7,35.3,255.1,37.9,255.1,37.9z"/>
			<path class="st6" d="M249.3,75.7c0,0,0.6,17.1-0.3,26.9s0,23.4,0,23.4s2.7,1.5,5.6,0c0,0,3.2-18.9,3.2-23.4
				c0-4.8,3.5-26.2,3.5-26.2L249.3,75.7z"/>
			<path class="st6" d="M269.1,126c0,0-2.7,1.5-5.6,0c0,0-3.2-18.9-3.2-23.4c0-2-0.6-7-1.3-12.1c-1-6.9-2.1-14.1-2.1-14.1l12.4-0.8
				c0,0-1,17.2-0.2,26.9C270,112.4,269.1,126,269.1,126z"/>
			<path class="st7" d="M269.2,78.6c0,0-5.3,1-10.1,1c-2.1,0-4.4-0.2-6.2-0.5c-2-0.3-3.5-0.6-3.5-0.6s-1.1,0.1-0.4-5.2
				c0.5-4,0.3-7.7,0.2-11.4c0-0.4,0-0.9,0-1.5c0.2-4.4,1.5-12.2,2.5-12.6c0,0,1.5-0.6,4.1-0.8c0,0.1,1.5,2.3,3.4,2.5
				c1.1-0.4,2-0.8,3.3-2.5c1.6,0.2,3.3,0.5,5.1,1c0,0,0.2,0.8,0.9,15.3C268.8,69.1,270.7,78.6,269.2,78.6z"/>
			<path class="st8" d="M260.4,102.6c0-2-0.6-7-1.3-12.1c0.7-3,2.6-6,2.6-6C263.9,91,260.4,102.6,260.4,102.6z"/>
			<path class="st9" d="M244.3,65c-0.1,0.1,0.3,1.2,1,2.6c1.3,2.9,3.6,7.2,3.6,7.2c-0.3,1.2-0.7,2-0.7,2c-3.7-2.9-6.1-5.4-7.7-7.3
				c-2.2-2.7-2.6-4.2-2.6-4.2c8.3-16.9,14.2-17.5,14.2-17.5l-0.7,11.2C251.3,58.9,244.7,64.7,244.3,65z"/>
			<path class="st9" d="M270.7,83c-1.2,2.5-5.9,2.4-5.9,2.4c-0.9-6.6-1-38.1-1-38.1c1.6,0.2,3.7,0.8,3.7,0.8
				c1.5,2.9,2.1,8.4,2.2,12.3c0.1,2.2,0,3.8-0.1,4.2c-0.1,0.6,0,3.6,0.3,6.9C270.1,76.7,270.7,83,270.7,83z"/>
			<path class="st9" d="M254.6,47.2c0,0-0.3,31.6-1.2,38.2c0,0-4.7,0.1-5.9-2.4c0,0,1.9-19.4,1.6-21c-0.2-1.1,0.3-10.2,2.4-14.1
				C251.5,47.9,253.3,47.3,254.6,47.2z"/>
			<path class="st3" d="M248.3,75.1c0,0,2-1.9,2.8-0.8s1,2.7,0.3,2.6c-0.6-0.1-1.9-0.7-2.1-0.4c-0.2,0.3-1,0.9-1.3,0.4
				C247.9,76.4,248.3,75.1,248.3,75.1z"/>
			<path class="st3" d="M248.8,74.9c-0.3,1.2-0.7,2-0.7,2c-3.7-2.9-6.1-5.4-7.7-7.3c1.2-0.1,2.8-0.5,4.8-1.9
				C246.6,70.6,248.8,74.9,248.8,74.9z"/>
			<path class="st9" d="M280.9,65.3c0,0-0.4,1.5-2.6,4.2c-1.5,1.9-3.9,4.4-7.7,7.3c0,0-0.4-0.8-0.7-2c0,0,2.2-4.3,3.6-7.2
				c0.6-1.4,1.1-2.5,1-2.6c-0.3-0.2-4.4-3.8-6.2-5.4c-0.5-0.5-0.9-0.7-0.9-0.7l-0.4-11C267,47.9,272.6,48.4,280.9,65.3z"/>
			<path class="st3" d="M270.4,75.1c0,0-2-1.9-2.8-0.8c-0.8,1-1,2.7-0.3,2.6c0.6-0.1,1.9-0.7,2.1-0.4s1,0.9,1.3,0.4
				C270.9,76.4,270.4,75.1,270.4,75.1z"/>
			<path class="st3" d="M269.9,74.9c0.3,1.2,0.7,2,0.7,2c3.7-2.9,6.1-5.4,7.7-7.3c-1.2-0.1-2.8-0.5-4.8-1.9
				C272.1,70.6,269.9,74.9,269.9,74.9z"/>
			<path class="st2" d="M274.4,65c-0.3-0.2-4.4-3.8-6.2-5.4c0,0,1.8-1.4,2.9,0.6C272.3,62.3,274.4,65,274.4,65z"/>
			<path class="st2" d="M280.9,65.3c0,0-0.4,1.5-2.6,4.2C275.8,69.5,280.9,65.3,280.9,65.3z"/>
			<g>
				<g>
					<path class="st6" d="M257.3,39.5c-0.5,0-1.6-0.1-1.8-1c-0.1-0.3,0-0.5,0.2-0.7c0.2-0.2,0.5-0.3,0.8-0.3h1.6
						c0.3,0,0.5,0.1,0.6,0.3c0.2,0.3,0,0.7,0,0.9c-0.3,0.6-0.6,0.9-1.1,0.9C257.6,39.5,257.5,39.5,257.3,39.5z M256.5,37.5
						c-0.3,0-0.5,0.1-0.7,0.3c-0.1,0.2-0.2,0.4-0.1,0.6c0.1,0.5,0.4,0.8,1,0.9c0.5,0.1,0.9,0,0.9,0l0,0c0.4,0,0.8-0.3,1-0.8
						c0.1-0.1,0.2-0.6,0-0.8c-0.1-0.1-0.3-0.2-0.5-0.2L256.5,37.5L256.5,37.5z"/>
				</g>
				<g>
					<path class="st6" d="M261.1,39.5c-0.2,0-0.3,0-0.3,0c-0.5,0-0.8-0.3-1.1-0.9c-0.1-0.2-0.2-0.6,0-0.9c0.1-0.2,0.3-0.3,0.6-0.3
						h1.6c0.3,0,0.6,0.1,0.8,0.3c0.2,0.2,0.2,0.4,0.2,0.7C262.6,39.3,261.6,39.5,261.1,39.5z M260.3,37.5c-0.3,0-0.5,0.1-0.5,0.2
						c-0.2,0.3,0,0.7,0,0.8c0.2,0.6,0.5,0.8,1,0.8l0,0c0,0,0.4,0.1,0.9,0c0.6-0.1,1-0.4,1-0.9c0-0.2,0-0.5-0.1-0.6
						c-0.1-0.2-0.4-0.3-0.7-0.3L260.3,37.5L260.3,37.5z"/>
				</g>
				<g>
					<path class="st6" d="M258.6,38.1C258.6,38.1,258.6,38.1,258.6,38.1c-0.1-0.1-0.1-0.1,0-0.1c0,0,0.7-0.3,1.2,0c0,0,0,0.1,0,0.1
						s-0.1,0-0.1,0C259.3,37.9,258.7,38.1,258.6,38.1L258.6,38.1z"/>
				</g>
			</g>
			<path class="st2" d="M269.8,71.5c-2.6-7.5-1.5-11.8-1.5-11.8l1.3,0.6c0.1,2.2,0,3.8-0.1,4.2C269.4,65.2,269.6,68.1,269.8,71.5z"
				/>
		</g>
		<g>
			<path class="st5" d="M144.7,39.6c0,0-3.1-5.7-0.3-8.2s7.9-1,8.8,0c0.9,1,2.2,3.9-0.4,8L144.7,39.6z"/>
			<path class="st2" d="M138.5,130.1c0,0,0-1.6,0.2-2.1c0.2-0.5,1-2.6,1-2.6h3.2c0,0,0.6,1.9,0.6,2.6c0,0.6,0,2.2,0,2.2L138.5,130.1
				L138.5,130.1z"/>
			<path class="st2" d="M158.9,130.1c0,0,0-1.6-0.2-2.1c-0.2-0.5-1-2.6-1-2.6h-3.2c0,0-0.6,1.9-0.6,2.6c0,0.6,0,2.2,0,2.2
				L158.9,130.1L158.9,130.1z"/>
			<path class="st10" d="M146,42c0,0-0.1,3.5-0.6,5.1l-3.5,2.5l13.3,2l-3.2-4.4c0,0-1-4.7-0.5-6.4S146,42,146,42z"/>
			<path class="st11" d="M146,42.4c0,0,1.1,2.5,3,2.5c2-0.1,2.4-2.3,2.4-2.3L146,42.4z"/>
			<path class="st10" d="M151.6,34.4h-5.5c-0.7,0-1.3,0.7-1.3,1.6v3.7c0,2.4,2.6,4.3,4.1,4.3c1.6,0,4.1-2,4.1-4.5v-3.5
				C152.9,35.1,152.3,34.4,151.6,34.4z"/>
			<path class="st12" d="M138.9,75.7c0,0,0.6,17.1-0.3,26.9s0,23.4,0,23.4s2.7,1.5,5.6,0c0,0,3.2-18.9,3.2-23.4
				c0-4.8,3.5-26.2,3.5-26.2L138.9,75.7z"/>
			<path class="st12" d="M158.8,126c0,0-2.7,1.5-5.6,0c0,0-3.2-18.9-3.2-23.4c0-2-0.6-7-1.3-12.1c-1-6.9-2.1-14.1-2.1-14.1l12.4-0.8
				c0,0-1,17.2-0.2,26.9C159.6,112.4,158.8,126,158.8,126z"/>
			<path class="st13" d="M156.6,47.9L156.6,47.9c-1.6-0.4-3.1-0.7-4.5-0.8c-1.2,1.6-2.1,2-3.3,2.5c-1.8-0.3-3.4-2.5-3.4-2.5
				c-2,0.2-3.3,0.6-3.9,0.7c-0.1,0-5.9,0.8-14.2,17.5c0,0,0.4,1.5,2.6,4.2c1.5,1.9,3.9,4.4,7.7,7.3c0,0,0.4-0.8,0.7-2
				c0,0-2.2-4.3-3.6-7.2c-0.6-1.4-1.1-2.5-1-2.6c0.2-0.2,2.9-2.5,4.9-4.3c0,0.4,0,0.8,0,1.2c0.1,3.7,0.3,7.4-0.2,11.4
				c-0.6,5.3,0.4,5.2,0.4,5.2s1.4,0.3,3.5,0.6c1.8,0.2,4.1,0.5,6.2,0.5c4.8,0,10.1-1,10.1-1c1.5,0-0.4-9.5-0.7-15.2
				c-0.1-1.3-0.1-2.5-0.2-3.6c1.8,1.6,5.9,5.1,6.2,5.3c0.1,0.1-0.3,1.2-1,2.6c-1.3,2.9-3.6,7.2-3.6,7.2c0.3,1.2,0.7,2,0.7,2
				c3.7-2.9,6.1-5.4,7.7-7.3c2.2-2.7,2.6-4.2,2.6-4.2C162.2,48.4,156.6,47.9,156.6,47.9z"/>
			<path class="st14" d="M142.5,79.1c-2-0.3-3.5-0.6-3.5-0.6s-1.1,0.1-0.4-5.2c0.5-4,0.3-7.7,0.2-11.4c0-0.4,0-0.9,0-1.5
				c0.3,0.5,3.7,6.1,4.7,10.2C144.2,73.7,143.1,77.2,142.5,79.1z"/>
			<path class="st15" d="M150,102.6c0-2-0.6-7-1.3-12.1c0.7-3,2.6-6,2.6-6C153.5,91,150,102.6,150,102.6z"/>
			<path class="st10" d="M138,75.1c0,0,2-1.9,2.8-0.8c0.8,1,1,2.7,0.3,2.6c-0.6-0.1-1.9-0.7-2.1-0.4s-1,0.9-1.3,0.4
				C137.5,76.4,138,75.1,138,75.1z"/>
			<path class="st10" d="M138.4,74.9c-0.3,1.2-0.7,2-0.7,2c-3.7-2.9-6.1-5.4-7.7-7.3c1.2-0.1,2.8-0.5,4.8-1.9
				C136.2,70.6,138.4,74.9,138.4,74.9z"/>
			<path class="st10" d="M160,75.1c0,0-2-1.9-2.8-0.8s-1,2.7-0.3,2.6c0.6-0.1,1.9-0.7,2.1-0.4s1,0.9,1.3,0.4
				C160.5,76.4,160,75.1,160,75.1z"/>
			<path class="st10" d="M159.5,74.9c0.3,1.2,0.7,2,0.7,2c3.7-2.9,6.1-5.4,7.7-7.3c-1.2-0.1-2.8-0.5-4.8-1.9
				C161.8,70.6,159.5,74.9,159.5,74.9z"/>
			<path class="st14" d="M164.1,65c-0.3-0.2-4.4-3.8-6.2-5.4c0,0,1.8-1.4,2.9,0.6C161.9,62.3,164.1,65,164.1,65z"/>
			<path class="st14" d="M170.5,65.3c0,0-0.4,1.5-2.6,4.2C165.4,69.5,170.5,65.3,170.5,65.3z"/>
			<path class="st5" d="M144.7,37.4c0,0,1-3,4.3-2.6s3.6,1.2,3.9,2c0.3,0.8,1-3,1-3l-3.9-1.1c0,0-4.7,0.5-5,1.3
				c-0.3,0.8-0.3,0.8-0.3,0.8V37.4z"/>
			<path class="st5" d="M148.6,31.5c0,0-3.5-3.1-2-3.8C148.1,27,148.6,31.5,148.6,31.5z"/>
			<path class="st5" d="M148.4,31.6c0,0-4.4-1.6-3.2-2.8C146.3,27.6,148.4,31.6,148.4,31.6z"/>
			<path class="st5" d="M148.7,31.7c0,0-0.7-4.1,1-4C151.4,27.7,148.7,31.7,148.7,31.7z"/>
			<path class="st5" d="M148.9,31.4c0,0,1.9-4.4,3.6-4C154.3,27.9,148.9,31.4,148.9,31.4z"/>
			<path class="st5" d="M148.9,31.7c0,0,3-3.7,4.5-2.8S148.9,31.7,148.9,31.7z"/>
		</g>
		<g>
			<path class="st2" d="M116.7,130.1c0,0,0-1.6,0.2-2.1c0.2-0.5,1-2.6,1-2.6h3.2c0,0,0.6,1.9,0.6,2.6c0,0.6,0,2.2,0,2.2L116.7,130.1
				L116.7,130.1z"/>
			<path class="st2" d="M137.1,130.1c0,0,0-1.6-0.2-2.1c-0.2-0.5-1-2.6-1-2.6h-3.2c0,0-0.6,1.9-0.6,2.6c0,0.6,0,2.2,0,2.2
				L137.1,130.1L137.1,130.1z"/>
			<path class="st3" d="M124.2,42c0,0-0.1,3.5-0.6,5.1l-3.5,2.5l13.3,2l-3.2-4.4c0,0-1-4.7-0.5-6.4C130.3,38.9,124.2,42,124.2,42z"
				/>
			<path class="st4" d="M124.2,42.4c0,0,1.1,2.5,3,2.5c2-0.1,2.4-2.3,2.4-2.3L124.2,42.4z"/>
			<path class="st6" d="M123,40.4c0,0-0.6-3.2-1.1-4.2c-0.4-1-0.8-5.3,4.1-5.5c0,0,1.9,0.2,2.9-0.4c0,0,0,0.6-0.3,0.9
				c0,0,1.7-0.4,3.1,1.1c1.3,1.5-0.9,6.7-0.8,7.9L123,40.4z"/>
			<path class="st3" d="M129.8,34.4h-5.5c-0.7,0-1.3,0.7-1.3,1.6v3.7c0,2.4,2.6,4.3,4.1,4.3c1.6,0,4.1-2,4.1-4.5v-3.5
				C131.1,35.1,130.5,34.4,129.8,34.4z"/>
			<path class="st6" d="M122.9,37.9c0,0,0-2.2,1.8-2.6c1.8-0.3,5.7,1.1,6.3-0.5c0.6-1.6-7.6-1.6-8-0.6
				C122.5,35.3,122.9,37.9,122.9,37.9z"/>
			<path class="st9" d="M117.1,75.7c0,0,0.6,17.1-0.3,26.9s0,23.4,0,23.4s2.7,1.5,5.6,0c0,0,3.2-18.9,3.2-23.4
				c0-4.8,3.5-26.2,3.5-26.2L117.1,75.7z"/>
			<path class="st9" d="M137,126c0,0-2.7,1.5-5.6,0c0,0-3.2-18.9-3.2-23.4c0-2-0.6-7-1.3-12.1c-1-6.9-2.1-14.1-2.1-14.1l12.4-0.8
				c0,0-1,17.2-0.2,26.9C137.8,112.4,137,126,137,126z"/>
			<path class="st16" d="M120.6,79.1c-2-0.3-3.5-0.6-3.5-0.6s-1.1,0.1-0.4-5.2c0.5-4,0.3-7.7,0.2-11.4c0-0.4,0-0.9,0-1.5
				c0.3,0.5,3.7,6.1,4.7,10.2C122.3,73.7,121.3,77.2,120.6,79.1z"/>
			<path class="st17" d="M134.8,47.9L134.8,47.9c-1.6-0.4-3.1-0.7-4.5-0.8c-1.2,1.6-2.1,2-3.3,2.5c-1.8-0.3-3.4-2.5-3.4-2.5
				c-2,0.2-3.3,0.6-3.9,0.7c-0.1,0-5.9,0.8-14.2,17.5c0,0,0.4,1.5,2.6,4.2c1.5,1.9,3.9,4.4,7.7,7.3c0,0,0.4-0.8,0.7-2
				c0,0-2.2-4.3-3.6-7.2c-0.6-1.4-1.1-2.5-1-2.6c0.2-0.2,2.9-2.5,4.9-4.3c0,0.4,0,0.8,0,1.2c0.1,3.7,0.3,7.4-0.2,11.4
				c-0.6,5.3,0.4,5.2,0.4,5.2s1.4,0.3,3.5,0.6c1.8,0.2,4.1,0.5,6.2,0.5c4.8,0,10.1-1,10.1-1c1.5,0-0.4-9.5-0.7-15.2
				c-0.1-1.3-0.1-2.5-0.2-3.6c1.8,1.6,5.9,5.1,6.2,5.3c0.1,0.1-0.3,1.2-1,2.6c-1.3,2.9-3.6,7.2-3.6,7.2c0.3,1.2,0.7,2,0.7,2
				c3.7-2.9,6.1-5.4,7.7-7.3c2.2-2.7,2.6-4.2,2.6-4.2C140.4,48.4,134.8,47.9,134.8,47.9z"/>
			<path class="st2" d="M128.2,102.6c0-2-0.6-7-1.3-12.1c0.7-3,2.6-6,2.6-6C131.7,91,128.2,102.6,128.2,102.6z"/>
			<path class="st3" d="M116.2,75.1c0,0,2-1.9,2.8-0.8c0.8,1,1,2.7,0.3,2.6c-0.6-0.1-1.9-0.7-2.1-0.4c-0.2,0.3-1,0.9-1.3,0.4
				C115.7,76.4,116.2,75.1,116.2,75.1z"/>
			<path class="st3" d="M116.6,74.9c-0.3,1.2-0.7,2-0.7,2c-3.7-2.9-6.1-5.4-7.7-7.3c1.2-0.1,2.8-0.5,4.8-1.9
				C114.4,70.6,116.6,74.9,116.6,74.9z"/>
			<path class="st3" d="M138.2,75.1c0,0-2-1.9-2.8-0.8c-0.8,1-1,2.7-0.3,2.6c0.6-0.1,1.9-0.7,2.1-0.4s1,0.9,1.3,0.4
				C138.7,76.4,138.2,75.1,138.2,75.1z"/>
			<path class="st3" d="M137.7,74.9c0.3,1.2,0.7,2,0.7,2c3.7-2.9,6.1-5.4,7.7-7.3c-1.2-0.1-2.8-0.5-4.8-1.9
				C140,70.6,137.7,74.9,137.7,74.9z"/>
			<path class="st9" d="M142.3,65c-0.3-0.2-4.4-3.8-6.2-5.4c0,0,1.8-1.4,2.9,0.6C140.1,62.3,142.3,65,142.3,65z"/>
			<path class="st9" d="M148.7,65.3c0,0-0.4,1.5-2.6,4.2C143.6,69.5,148.7,65.3,148.7,65.3z"/>
			<path class="st12" d="M123.8,46.2c0,0-0.6,0.2-0.8,0.9c0,0,2.4,2.4,3.9,2.5L123.8,46.2z"/>
			<path class="st12" d="M127,49.6l3.1-3.5c0,0,0.6,0.4,0.6,1.1C130.7,47.1,128.3,49.7,127,49.6z"/>
			<path class="st12" d="M126.5,49.3c0,0-2.3,20.2-1.5,22.7c0.4,1.3,1,2.4,1.4,3.1c0.3,0.6,1.1,0.5,1.4,0c0.6-1.1,1.4-2.6,1.4-3.4
				c0-1.3-1.8-22.4-1.8-22.4L126.5,49.3z"/>
			<path class="st15" d="M125.9,48.3c0,0,1.4-0.1,2.3-0.1c0.2,0,0.3,0.2,0.2,0.4c-0.2,0.4-0.7,1.2-1.2,1.2
				C126.3,49.8,125.2,48.4,125.9,48.3z"/>
		</g>
		<g>
			<path class="st2" d="M215,39.3c0,0-1.3-3.7-1.4-4.7c-0.1-1,0.4-3.8,3.6-4.1c3.2-0.3,4.4-0.6,4.4-0.6l-0.6,0.7
				c0,0,0.9-0.3,1.8,0.3c0.9,0.6,1.4,2.4,1.3,4c-0.1,1.6-1.4,3.3-1.4,3.9C222.7,39.6,215,39.3,215,39.3z"/>
			<path class="st18" d="M206.2,78c0,0-0.1,0.9-1,2.7c0,0-0.4,1.3,2.3,3.2c2.7,1.9,0.1-5.9,0.1-5.9H206.2z"/>
			<path class="st18" d="M215.6,45.1c0,0-1.5,8-3.1,16.4c-1.8,9.1-3.7,18.6-4.1,18.7c-0.7,0.2-1.7-0.6-2.1-1.8
				c-0.4-0.9-1-8.2-0.6-13c0.1-1.2,0.2-2.1,0.4-2.7c0.7-3,0.9-13.6,2.9-15.3C211,45.8,215.6,45.1,215.6,45.1z"/>
			<path class="st7" d="M215.6,45.1c0,0-0.9,4.6-2,10.5c-0.4,1.9-0.7,3.9-1.1,5.9c-1.6,3.1-3,5.3-3.4,4.9c-0.9-0.8-2.4-0.9-3.3-0.9
				c0.1-1.2,0.2-2.1,0.4-2.7c0.1-0.2,0.1-0.5,0.2-0.8c0.6-3.8,0.9-12.9,2.7-14.4C211,45.8,215.6,45.1,215.6,45.1z"/>
			<path class="st19" d="M213.6,55.6c-0.4,1.9-0.7,3.9-1.1,5.9c-1.6,3.1-3,5.3-3.4,4.9c-0.9-0.8-2.4-0.9-3.3-0.9
				c0.1-1.2,0.2-2.1,0.4-2.7c0.1-0.2,0.1-0.5,0.2-0.8l4.8-11.6L213.6,55.6z"/>
			<path class="st18" d="M222.3,45c0-1.6,0-3.5-0.2-5.2l-6.5,1.1c0,0,0,2,0,4.2l0,0c0,0-0.2,2,2.3,2.3
				C220.4,47.6,222.3,46.5,222.3,45z"/>
			<path class="st20" d="M215.6,41.3c0,0,1.5,3.1,3.3,3.1c1.7,0,3.4-2.9,3.4-2.9L215.6,41.3z"/>
			<path class="st2" d="M219.9,130.5c0,0,0.2-1.8,0.8-2.9s4-0.4,4-0.4s0.7,0.6,0.8,3.4L219.9,130.5z"/>
			<path class="st2" d="M208.1,130.5c0.8-0.5,0.4-4.2,0.4-4.2s-3.8-3-4.3-0.7c-0.5,2.3-3.6,3.4-5.4,3.6c-1.2,0.2-1.6,0.9-1.7,1.3
				L208.1,130.5L208.1,130.5z"/>
			<path class="st18" d="M215.8,41.5c0.6,0.5,2.5,1,3,1c0,0,2.7-0.6,3.2-0.9c0.8-0.5,0.7-1.4,0.8-2.7c0-1.5,0.2-2.8,0-3.7
				c-0.2-1.1-0.9-1.7-2.8-1.8c-3.5-0.3-4.9,0.6-5,1.7c0,0.3,0,0.6,0,0.9C214.8,39.7,215.1,41,215.8,41.5z"/>
			<path class="st9" d="M215.9,103c-0.2,0.8-0.3,1.5-0.3,2c-0.4,6.9-5.8,22.6-6.8,22.9c-1.5,0.6-3.9-0.6-5.1-1
				c-0.5-0.2-0.9-0.7-0.7-1.2c2.7-12.4,3.7-30.2,4-40.7c0.2-5.3,1.1-9,1.1-9s13.2-3.5,13.3,0.9C221.6,80.9,217.1,96.5,215.9,103z"/>
			<path class="st2" d="M215.9,103l-8.8-18c0.2-5.3,1.1-9,1.1-9s13.2-3.5,13.3,0.9C221.6,80.9,217.1,96.5,215.9,103z"/>
			<path class="st9" d="M213,77l7,50.8c0,0,3.1,0.7,5.5,0.1c0,0,2.1-27,1.9-33.5c-0.2-6.5,1.5-17.5-0.4-18.7
				C225.1,74.5,213,77,213,77z"/>
			<path class="st21" d="M228,75.7c0,0.6-0.4,1.1-1,1.1l-11,0.2l-8.1,0.1c-0.4,0,0.8-3,0.8-22.8c0-4.4,6.8-9.2,7-9.2l0,0
				c0,0.6,1,1.8,2.5,1.9c1.8,0.1,4.1-0.8,4.1-1.8c0,0,0.2,0.2,0.6,0.7c0.9,1.3,2.8,4.6,3.9,10.2c0.9,4.5,0.6,10.4,1.2,18.2
				C228,74.8,228,75.3,228,75.7z"/>
			<path class="st7" d="M227.6,76.9c0,0-1.5,0.7-4.2,1.2c-2,0.4-4.8,0.8-8.2,0.8c-5.4,0-7.4-1.8-7.4-1.8c-0.4,0,0.8-3,0.8-22.8
				c0-4.4,6.8-9.2,7-9.2l0,0c0,0-0.2,5.9,1.6,7.6c0,0,2.5-1.9,5.7-7.4c0.9,1.3,2.6,5.2,3.8,10.8c0.2,1.2,0.4,2.4,0.5,3.8
				c0.3,3.9,0.2,8.7,0.7,14.4c0,0.6,0,1.1,0,1.4C228,76.3,228.1,76.9,227.6,76.9z"/>
			<path class="st19" d="M227.6,76.9c0,0-1.5,0.7-4.2,1.2c-0.9-1.3-2-3.7-2.1-7.4c-0.3-6.3,5.8-14.5,5.8-14.5l0.2,3.7
				c0.3,3.9,0.2,8.7,0.7,14.4c0,0.6,0,1.1,0,1.4C228,76.3,228.1,76.9,227.6,76.9z"/>
			<rect x="215.4" y="57.3" transform="matrix(0.866 -0.5 0.5 0.866 -3.0577 119.4012)" class="st9" width="11.8" height="16.2"/>
			<path class="st18" d="M232.1,68.6c0,0-2.1,0.2-5.7-0.2c-2.6-0.3-6-0.8-9.9-2l1.1-2c0,0,4.7-0.2,8.1-0.7c0.9-0.1,1.6-0.3,2.2-0.4
				c0.7-0.2-3-9.6-4.8-15.1c-0.4-1.3-0.8-2.4-0.9-3.1c0,0,0.3,0.1,0.8,0.2c1.5,0.3,4.4,1,5.7,1.9C230.4,48.5,234.7,63,232.1,68.6z"
				/>
			<path class="st18" d="M217.7,64.5c0,0-1.6-1.5-2.2-1.5s-2.4,0.6-2.6,1.1c-0.2,0.5-0.3,1.4,0.3,1.6c0.5,0.2,2.6,0.7,3.1,0.7
				C216.9,66.5,218.2,66.2,217.7,64.5z"/>
			<path class="st7" d="M232.1,68.6c0,0-2.1,0.2-5.7-0.2c0.2-1,0.4-2.9-0.6-4.6c0.9-0.1,1.6-0.3,2.2-0.4c0.7-0.2-3-9.6-4.8-15.1
				c-0.1-1.8-0.2-3-0.2-3l0.1,0c1.5,0.3,4.4,1,5.7,1.9C230.4,48.5,234.7,63,232.1,68.6z"/>
			<path class="st19" d="M217.2,52.7c0,0,5-2.2,5.1-2.4s-0.2-1.5-0.6-1.9c0,0,2.4,0.2,2.5-0.1c0.1-0.3,0.2-2.8,0.2-2.8
				s-0.9-1-2.2-1.1c0,0-1.1,2.7-1.5,3.5C219.7,50.1,217.2,52.7,217.2,52.7z"/>
			<path class="st19" d="M216,48.4c0,0,0.3,2.6,1.2,4.4c0,0-2.6-1.8-2.8-2.4c-0.2-0.6,0.6-1.7,0.6-1.7s-1.6,0-1.6-0.6
				c0-0.5,0.5-2.6,0.5-2.6s1.3-1,1.7-0.9L216,48.4z"/>
			<path class="st2" d="M214.9,37.2c0,0,0.1-2.3,1.6-2.3c1.4,0,3.9-0.2,5-1.1c1-1-6.2-0.5-6.2-0.5S214.4,36,214.9,37.2z"/>
			<path class="st2" d="M220.7,34.1c0,0,1.9,0.8,2.1,2C222.9,36,223.5,31.6,220.7,34.1z"/>
		</g>
		<g>
			<g>
				<polygon class="st3" points="99.6,118.7 101.2,125.3 103.5,125.3 103.6,118.7 				"/>
				<polygon class="st3" points="119.2,119 123.6,125.3 125.4,123 122.7,118.1 				"/>
				<path class="st22" d="M103.3,36.9c-0.9-0.3-1.8-0.1-2.5,0c0.1-0.2,0.5-0.3,0.5-0.3c-0.4,0-1.3,0.6-1.3,0.6
					c-6.1-1-5.3,7.5-4.8,9.5c0.5,1.9-1.4,3-4.1,5.1c-5.1,4.1-4.8,8.1-4.8,8.1c0,0,0.1,0,0.2,0.1c0.2-0.5,0.6-1.5,1-1.8
					c0,0-0.3,1.3-0.4,2.1c1.9,0.9,5.6,3.1,8.2,4.7c-0.1-0.4-0.2-0.9-0.1-1.3l0.6,1.6c1.4,0.8,2.3,1.4,2.3,1.4
					c-0.5-1.5,5.1-11.3,8.4-14.6c0.6-1.5,0.5-4,0.5-4.2c0.2,1.9,0.1,3.1-0.1,3.7C109.7,48,105.6,37.7,103.3,36.9z"/>
				<path class="st3" d="M105.7,52.7c0,0-1.9,1-3.3,0.6c-1.3-0.4-2.2-2.1-2.2-2.1c0.6-0.1,0.7-0.9,0.7-4.2l0.3,0.1l4.3,0.9
					c0,0-0.1,1.4-0.1,2.6C105.4,51.6,105.5,52.6,105.7,52.7z"/>
				<path class="st23" d="M98.8,39.3c0,0,1.6-2.6,4.7-1.1C103.5,38.2,101.9,38.2,98.8,39.3z"/>
				<path class="st24" d="M105.5,47.9c0,0-0.1,1.4-0.1,2.6c-2.4-0.1-3.7-2.3-4.2-3.5L105.5,47.9z"/>
				<path class="st22" d="M100.4,47.2c0,0-1.6-1.7-2.3-3.3c-0.5-1.1-0.7-5.7,3.8-5.9c0,0,1.3-0.1,2.7,0.4c1.1,0.5,2.8,1.6,2,5.8
					l-0.1,1.4L100.4,47.2z"/>
				<path class="st25" d="M125,121.6c0,0-1.1,0.2-2.1,0.3c-0.2,0-0.4,0-0.6,0c-0.5,0-1.3-0.2-1.8-0.3h0c-0.2-0.1-0.4-0.1-0.5-0.1h0
					c0,0-5.7-6.3-8.9-16.5c-0.1-0.2-0.2-0.5-0.2-0.7c-1.7-5.1-5.4-11.5-7.3-17.3c-0.3-0.9-0.6-1.8-0.8-2.6c-0.1-0.3-0.2-0.5-0.2-0.8
					c-1.4-4.9-1.8-8.1-2.2-11.5l11.5,2.9C111.8,74.9,116.6,95.9,125,121.6z"/>
				<path class="st3" d="M106.3,48.5c0,0-5.6,1.2-6.3-2.3c-0.7-3.5-1.9-5.7,1.6-6.6c3.5-0.9,4.5,0.3,5,1.4
					C107.2,42.2,107.7,48.1,106.3,48.5z"/>
				<path class="st22" d="M104.2,39.1c0,0-0.7,4.4-2.9,5.5c-2.2,1.1-3.4,0.7-3.4,0.7s1.5-1.8,1.4-4.4
					C99.3,40.9,102.6,37.4,104.2,39.1z"/>
				<path class="st22" d="M103.9,39.5c0,0,1.3,0.7,1.8,1.5c0.5,0.8,0.9,2.6,1.5,2.5c0,0,0.6-3-1-4.3
					C104.4,37.8,103.9,39.5,103.9,39.5z"/>
				<path class="st3" d="M101.1,124.9c0,0,0.2,1.3-0.3,2.7c0,0-0.4,1.7,1.3,1.8c1.7,0,2.1-0.1,1.9-1.2c-0.2-1.1-0.6-2.9-0.6-2.9
					L101.1,124.9z"/>
				<path class="st26" d="M100.8,127.6c0,0-0.3,1.6-0.1,2.5c0,0,0.5,0.4,1.8,0.4c1.2,0,1.8-0.4,1.8-0.4s0-1.8-0.3-2.6
					C104,127.5,102.7,129.4,100.8,127.6z"/>
				<path class="st3" d="M129.5,128.3c0,0-3.2-3.5-4.1-5.3l-2.3,1.2l5.2,4.9l1.2-0.2L129.5,128.3z"/>
				<path class="st26" d="M131.5,130.4c0,0-3.4,0-4-0.1c-0.6-0.1-1-0.9-1.7-2.2c-0.3-0.5-0.8-0.8-1.4-1v2.9h-0.9l-0.8-3.1
					c-0.6-1,0-2,0.3-2.8c0.5,0,1.7,0.3,4,2.9c0.8,0.9,1.6,1.2,2.5,1.1c0,0,0,0,0,0C131.5,129.2,131.5,130.4,131.5,130.4z"/>
				<path class="st27" d="M122.9,121.9c-0.2,0-0.4,0-0.6,0c-0.5,0-1.3-0.2-1.8-0.3h0l-0.5-0.1h0c0,0-5.7-6.3-8.9-16.5
					c-0.1-0.2-0.2-0.5-0.2-0.7c-1.7-5.1-5.4-11.5-7.3-17.3c-0.3-0.9-0.6-1.8-0.8-2.6c-0.1-0.3-0.2-0.5-0.2-0.8l2-1.5
					c0,0,6.1,9.9,8,19.2C114,108.9,120.8,118.9,122.9,121.9z"/>
				<path class="st25" d="M104.7,102.1c0,4.5-0.2,14.9-0.8,19.2c0,0-0.6,0.5-1.9,0.5c-1.4,0-2.1-0.5-2.1-0.5
					c-1.5-7.5-2.5-13.7-3.3-19c-0.6-4.4-1.2-8.1-1.6-11.4c-0.4-2.9-0.7-5.3-0.8-7.4c0-0.3,0-0.6,0-0.8c0-0.4,0-0.7,0-1.1
					c0-0.3,0-0.7,0-1h0l2.9-0.3l9-0.9C105.9,87.3,104.7,99.4,104.7,102.1z"/>
				<path class="st27" d="M102,121.8c-1.2,0.1-2.1-0.5-2.1-0.5c-1.5-7.5-2.5-13.7-3.3-19c-0.6-4.4-1.2-8.1-1.6-11.4
					c-0.4-2.9-0.7-5.3-0.8-7.4c0-1,0-2,0-2.9s0-1.6-0.1-2.1l2.9,1.9l3.1,2c0,0-4.3,3.9-3.3,11.4C97.9,101.1,100.5,120.7,102,121.8z"
					/>
				<path class="st28" d="M104.3,51.1c0,0,4.6-0.7,6.2,0.8c1.9,1.9,5.5,12.8,5.3,14c-0.1,0.5-1.9,0.3-2.6-0.4
					C110.1,62.1,105.5,53.6,104.3,51.1z"/>
				<path class="st28" d="M113.3,81.4c-3.5,0.9-19.6,2.7-19.7-1.4c0-1,0-2.2,0.1-3.5c0.2-4,0.9-8.9,1.2-11.6c0.1-1.2-0.3-6.8,0-9.9
					c0.1-0.5,0.1-0.8,0.2-1.2c0.7-2.3,3.8-2.9,5.4-3l4.9-0.2c0,0,5,5.6,5.7,7.3s0.9,7.6,1.5,10.5C113.2,71.4,115,81,113.3,81.4z"/>
				<path class="st25" d="M103.8,67.7c0,0-2.7,8.3-10.1,8.8c0.2-4,0.9-8.9,1.2-11.6c0.1-1.2-0.3-6.8,0-9.9c0.1,0,0.2,0.1,0.3,0.1
					C103.4,56.7,104.5,66,103.8,67.7z"/>
				<path class="st24" d="M115.6,66.1c0,0-4.9,1.6-10.8-1c0,0-1.6-0.2-2.4,0.1c0,0,0.2-1.6,1-2c0.8-0.4,4.2,0.5,5.2,0.4
					C110.7,63.2,114.6,63,115.6,66.1z"/>
				<path class="st25" d="M111.3,62.3c0,0,0.5-4-1.1-6.3c0,0,0.5-0.2,0.9,0.4s3.1,6.5,1.8,6.9C111.7,63.8,111.3,62.3,111.3,62.3z"/>
				<path class="st24" d="M104.2,63c-0.1,0-2.3,0.3-2.7,0.6c-0.4,0.3,0,1.3,0.7,1.3C102.9,65,104.2,63,104.2,63z"/>
				<path class="st3" d="M98.1,64.5c0,0,6.4-0.2,12.1-1.3c0,0,1.1,0,0.9,0.9c-0.1,0.9-10,6.1-12.2,5.1L98.1,64.5z"/>
				<path class="st3" d="M110.2,63.2c0,0,0.7-0.8,1.1-0.8s1.5,0.5,1.7,1c0.2,0.5-1.3,0.1-1.8,0.7C110.6,64.7,110.2,63.2,110.2,63.2z
					"/>
				<path class="st28" d="M100.6,50.9c0,0-5.3,0-6.1,1.9C93,56.4,97.7,68,98.9,69.2c0.5,0.5,3-0.3,3-3.6
					C102,63.8,101.8,53.7,100.6,50.9z"/>
			</g>
		</g>
		<g>
			<g>
				<path class="st3" d="M97.9,80.3c0,0,3.4,1.2,3,5.1c0,0-0.3,1.6-1.3,0.9c-1-0.7-0.5-0.6-1.9-1.6c-1.4-1-2.3-2.5-2.2-3.7
					L97.9,80.3z"/>
				<path class="st7" d="M98,80.6L96,83c-0.1,0.1-0.2,0.2-0.4,0.1c-1.9-0.4-8.5-4.6-10.6-6.3c-0.2-0.2-0.4-0.3-0.5-0.5
					c-0.8-0.8-3.6-4.8-5.5-8.4c-1.1-2.1-2-4-2.1-5.1c-0.2-3.8,1.8-9.2,1.8-9.2c6,2.1,6.6,6.9,6.6,6.9l3.3,12.3l9.4,7
					C98.2,80.1,98.2,80.4,98,80.6z"/>
				<path class="st29" d="M85,76.9c-0.2-0.2-0.4-0.3-0.5-0.5c-0.8-0.8-3.6-4.8-5.5-8.4c-0.3-2.2-0.1-4.2,0.8-5.6
					C79.7,62.3,84.8,71.3,85,76.9z"/>
				<path class="st3" d="M81.5,112.4l-1,4.2l-0.6,2.6l-2.1,8.7c0,0-1.8,0.6-3.7,0c0,0-0.7-2.9-0.7-6.5c0-1.9,0.2-4,0.7-5.9
					c0.2-0.8,0.5-1.6,0.9-2.3C78,107.2,81.5,112.4,81.5,112.4z"/>
				<path class="st9" d="M83.3,130.6h-9.8c0,0-0.2-1.5,0.3-2.9c0.1-0.2,0.1-0.4,0.2-0.6c0,0,2.2,0.5,4.1,0c0,0,1.8,1.5,2.9,2
					C82,129.5,83.2,129.2,83.3,130.6z"/>
				<path class="st30" d="M80.5,116.7l-0.6,2.6c-1.1,0.7-3.4,1.9-6.5,2.2c0-1.9,0.2-4,0.7-5.9c0.9-0.5,1.8-0.7,2.6-0.6
					C78.7,115.4,79.9,116.1,80.5,116.7z"/>
				<path class="st31" d="M78.2,130.6h-4.7c0,0-0.2-1.5,0.3-2.9C74.9,128,77.3,129,78.2,130.6z"/>
				<path class="st3" d="M73.7,112.4l-1,4.2l-0.6,2.6l-2.1,8.7c0,0-1.8,0.6-3.7,0c0,0-0.7-2.9-0.7-6.5c0-1.9,0.2-4,0.7-5.9
					c0.2-0.8,0.5-1.6,0.9-2.3C70.1,107.2,73.7,112.4,73.7,112.4z"/>
				<path class="st9" d="M66.1,127c0,0,2.2,0.5,4.1,0c0,0,1.8,1.5,2.9,2c1.1,0.5,2.3,0.2,2.4,1.6h-9.8
					C65.6,130.6,65.4,128.6,66.1,127z"/>
				<path class="st30" d="M72.7,116.7l-0.6,2.6c-1.1,0.7-3.4,1.9-6.5,2.2c0-1.9,0.2-4,0.7-5.9c0.9-0.5,1.8-0.7,2.6-0.6
					C70.9,115.4,72,116.1,72.7,116.7z"/>
				<path class="st32" d="M83.6,116.4c-0.2,0.9-1,1.5-1.9,1.5H65.9c-1.2,0-2.1-1-2-2.2c0.2-2.2,0.8-5.7,1-8c0.1-1,0.2-1.8,0.1-2.2
					c-1.6-10.5-2.9-23-2.8-25.3c0-0.3,0-0.5,0-0.5s1.1-0.1,2.9-0.2c5.1-0.2,15.2-0.2,16.9,3.2c1.7,3.4,2.8,25.9,2.8,25.9
					C85,110.6,84.1,114.3,83.6,116.4z"/>
				<path class="st33" d="M64.8,107.6c0.1-1,0.2-1.8,0.1-2.2c-1.6-10.5-2.9-23-2.8-25.3c0-0.3,0-0.5,0-0.5s1.1-0.1,2.9-0.2
					c2.6,1.5,4.3,4.2,4.3,4.2S68.9,103.4,64.8,107.6z"/>
				<path class="st33" d="M72.7,38c0-1.2,0.7-2.2,2-1.8c1.1,0.3,2.2,0.3,2.2,1.4s-0.9,2.5-2.1,2.5C73.6,40.1,72.7,39.2,72.7,38z"/>
				<path class="st32" d="M74,48.3c0,0-6.6-5.9-0.6-10.1c0,0,1.8-0.5,2.7-0.3c0,0,3.2-0.9,5.1,1.2c1.9,2.2,2.7,3.8,1.1,5.7
					C80.6,46.9,74,48.3,74,48.3z"/>
				<path class="st3" d="M66.5,84c0,0,1.6,3.3-1.5,5.7c0,0-1.4,0.9-1.6-0.3c-0.2-1.2,0-0.8-0.3-2.5c-0.3-1.7,0.1-3.4,1.1-4.2
					L66.5,84z"/>
				<path class="st3" d="M79.4,48.3c0,0-0.1,0.9-0.2,2.1c-0.1,0.6-0.2,1.2-0.3,1.9c-0.1,0.5-0.2,1-0.2,1.4l-2,6.9l-4.8-7.8
					c0,0,1.1-0.9,2.6-6c0-0.1,0-0.1,0-0.1L79.4,48.3z"/>
				<path class="st7" d="M82.2,82.1C82.2,82.9,82,83,82,83s-2.9,1.1-10.3,0.7c-0.8,0-1.6-0.1-2.3-0.1c-4.8-0.3-7.3-0.6-7.3-0.6
					s-3.9-9,3.4-20.1c0.8-1.3,1.8-2.5,2.9-3.8c1.2-1.4,1.4-3.2,1.9-4.9c0.1-0.5-0.2-0.6-0.1-1.1c0,0,1.3-0.4,1.5-0.4
					c0.8,0.7,1.8,2,4.2,2.2c1.7,0.2,2.3-0.8,2.6-1.3c0.6,0.2,1.3,0.6,1.8,0.9c4.5,2.2,4.9,6.4,4.9,6.4s-4.1,13.6-4.4,15.3
					C80.9,77,81.8,78.2,82.2,82.1z"/>
				<path class="st30" d="M79.1,50.3c-0.1,0.6-0.3,2.2-0.4,2.9c-5.1-2-4.4-5.8-4.3-6.3c0-0.1,0-0.1,0-0.1S77.2,48.7,79.1,50.3z"/>
				<g>
					<path class="st3" d="M80.2,51c0,0-5.8,0.2-5.9-3.5c-0.1-3.6-0.9-6.1,2.9-6.3s4.5,1.1,4.8,2.3C82.3,44.7,81.7,50.9,80.2,51z"/>
				</g>
				<path class="st32" d="M80.7,40.7c0,0-0.4,6.1-7.5,5.4C73.3,46.1,73.4,37.7,80.7,40.7z"/>
				<path class="st32" d="M79.4,41.3c0,0,2,2.5,2.9,3.3C82.3,44.5,84.5,41.4,79.4,41.3z"/>
				<path class="st32" d="M79.4,41.3c0,0,1.8,3,2.7,3.8C82.1,45.1,84.5,41.4,79.4,41.3L79.4,41.3z"/>
				<path class="st29" d="M69.4,83.6c-4.8-0.3-7.3-0.6-7.3-0.6s-3.9-9,3.4-20.1C67.1,66.4,70.5,75.7,69.4,83.6z"/>
				<path class="st7" d="M71.8,52.8c0,0-5.7,1.2-8.2,4.1c-1.9,2.2-4,13.2-4,15c0,1.7,2,10.9,3.2,12.7c0.1,0.1,0.2,0.2,0.4,0.2
					l3.2-0.3c0.3,0,0.5-0.3,0.4-0.5L65,72.2l6.3-11.1C71.3,61.1,75,56.7,71.8,52.8z"/>
			</g>
			<g>
				<path class="st5" d="M96.1,127.4c0,0,0.5,0.9,1.5,1.2c0.7,0.1,1.2,0.5,1.6,1c0.3,0.4,0,1-0.5,1h-5.4c-0.5,0-0.8-0.4-0.8-0.9
					c0-0.4,0.1-0.9,0.1-1.2c0-0.8,0.8-1.4,0.8-1.4L96.1,127.4z"/>
				<path class="st34" d="M97.3,113.9c0.2,4.1-0.3,13.4-0.3,13.4s-0.4,1-2.7,1.3c-1.3,0.1-2.4-0.2-2.4-0.2c-0.5-2.2-0.9-4.3-1.3-6.3
					c-2.9-14.4-4.1-23.2-4.1-23.2L98,96.1c0,0-0.5,8.1-0.7,13.6C97.2,111.5,97.2,113,97.3,113.9z"/>
				<path class="st5" d="M97.9,96.1c0,0-0.5,8.1-0.7,13.6L90.4,122c-2.9-14.4-4.1-23.2-4.1-23.2L97.9,96.1z"/>
				<path class="st34" d="M86.3,77.6c0,0-4.5-2-7.9-0.3c-3.4,1.8-1.3,16.5,3.5,17.9l0,0C82,95.2,91.1,98.1,86.3,77.6z"/>
				<path class="st30" d="M99.3,99.6L99.3,99.6L99.3,99.6C99.3,99.5,99.2,99.5,99.3,99.6c-0.2-0.3-0.6-1.4-0.6-1.4l-0.7,0.9
					c0,0-0.3-0.2-0.3-0.2l0.1,2.5l0.7-0.2c0,0,0.1,0,0.1,0l0,0l0,0c0.1,0,0.2-0.1,0.2-0.2l0.6-0.9C99.4,99.9,99.4,99.7,99.3,99.6z"
					/>
				<path class="st30" d="M95.9,75.3c0,0,1.4,0,2.3,2c1.8,4.1,1,13.1,0.9,14.4c0,0,0.6,2.5-0.3,6.9l-1.2,0.7c0,0-1.8-17.4-1.6-19.1
					C96.3,78.5,95.9,75.3,95.9,75.3z"/>
				<path class="st5" d="M86.7,127.4c0,0,0.5,0.9,1.5,1.2c0.7,0.1,1.2,0.5,1.6,1c0.3,0.4,0,1-0.5,1h-5.4c-0.5,0-0.8-0.4-0.8-0.9
					c0-0.4,0.1-0.9,0.1-1.2c0-0.8,0.8-1.4,0.8-1.4L86.7,127.4z"/>
				<path class="st34" d="M90.4,58.9c-1.2,0-2.6,0.5-3.4,1.2c-0.8,0.8-1.7,0.8-2.3,1.8c-0.6,1-1,2-0.7,3.4c0.3,1.5,0.3,3,1.2,4.1
					c0.5,0.6,1.2,0.6,1.8,1.1c1,0.9,2.1,1.2,3.4,1.2c2.4,0,3.9-1.4,5.1-3.2c1-1.4,0.8-2.4,1-3.6C97.3,61.1,94.1,58.9,90.4,58.9z"/>
				<path class="st3" d="M93.8,74.3l-4.6,2.3l-0.9-3.2c0,0,0.6-1.1,0.8-2.9c0.1-0.8,0.2-1.6,0.1-2.6l3.7,1.9c0,0-0.1,0.3-0.1,0.9
					c-0.1,0.6-0.1,1.3,0.1,2C93,73.3,93.3,73.9,93.8,74.3z"/>
				<path class="st34" d="M83.2,97.4c0,0-0.9,11.6-0.7,30c0,0,1.1,0.6,2.3,0.7c2.4,0.2,2.9-0.7,2.9-0.7s2.4-9,3-13.1
					C91.4,110.5,95,97,95,97L83.2,97.4z"/>
				<path class="st35" d="M96.9,74.6c-0.4-0.2-1.7-0.7-3.6-1c0,0.7-0.2,1.3-1.3,1.4c-1.5,0.2-2.9-0.9-3.6-1.6l0,0l0,0
					c0,0-1.1,0.1-2.4,0.4c-0.6,0.1-1.3,0.3-1.9,0.5c-0.7,0.3-1.4,0.6-1.7,1l0,0l0,0c-1.2,1.5-3.1,5.8-3.1,5.8s3.2,1.2,4.1,1.9l0,0.2
					l0.5,4.2L82.3,96c0,0.1,0,0.1,0,0.2c0,0.6,0.4,1.1,0.9,1.2c0,0,0.1,0,0.4,0.1c1.6,0.2,8.1,1,13.2-0.4c1.1-0.3,1.9-1.4,1.8-2.6
					L97.7,84c0.4-0.1,1-0.2,1.4-0.2c0.3,0,0.6-0.1,0.7,0C99.9,83.8,99.3,75.6,96.9,74.6z"/>
				<path class="st36" d="M87.2,90.1c-0.1,2.9-2,6.4-3.7,7.3c-0.2,0-0.4-0.1-0.4-0.1c-0.6-0.1-0.9-0.6-0.9-1.2c0-0.1,0-0.1,0-0.2
					l1.5-8.4l-0.5-4.2c0-0.1,0-0.1,0-0.1S87.3,84.9,87.2,90.1z"/>
				<path class="st36" d="M99.1,83.8c-0.4,0-1.4,0.2-1.4,0.2l-0.5-4.4C97.3,79.6,98.9,82.7,99.1,83.8z"/>
				<path class="st34" d="M82.5,94.5l0.4-2.2c6.7-9.6,7.2-11.4,4.2-15.7c-0.9-1.2-2.4-2-3.1-2.2c0.6-0.2,1.3-0.4,1.9-0.5
					c0.6,0.3,1.2,0.6,1.7,1C96.8,82.7,82.5,94.5,82.5,94.5z"/>
				<path class="st3" d="M86.4,85.3c0.2,0,0.9-0.4,0.9-0.4s0.4-2.7,3-2.9c0,0,1.1,0,0.9,0.7c-0.2,0.7-0.2,0.4-0.5,1.5
					c-0.3,1.1-1,1.9-1.9,1.9l-0.8,0.2C87.9,86.4,86,85.3,86.4,85.3z"/>
				<g>
					<path class="st3" d="M87.3,84.9c0,0-4.4,0.4-5,0.7c0,0,0.4-1,1-2.4c-0.6-0.6-2.4-1.4-3.7-1.8c-0.9,2.4-1.3,4.8-0.8,7.1
						c0.1,0.2,0.3,0.4,0.5,0.4c1.4,0.1,6,0,9.4-2.8L87.3,84.9z"/>
				</g>
				<path class="st30" d="M92.9,72.7c-2.1-0.1-3.8-2.2-3.8-2.2l3.7,0.2C92.8,71.3,92.8,72,92.9,72.7z"/>
				<path class="st3" d="M93.1,71.4c0,0-4.7,0.6-4.8-2.7c-0.1-3.3,1.9-5.5,3.2-5.4c2.6,0,3,1.1,3.3,2.2
					C95.1,66.5,95.3,71.2,93.1,71.4z"/>
				<path class="st37" d="M91.9,69.5c0,0,0.1,0.4,1.1,0.3c0,0,0.9-0.1,0.8-0.5C93.8,69.3,93,69,91.9,69.5z"/>
				<path class="st34" d="M92.6,63.3c0,0-4,0-3.1,2.8c0.6,1.7-1.4,2-1.4,2l-0.9-2.8l0.6-2.2L92.6,63.3z"/>
			</g>
		</g>
		<g>
			<g>
				<path class="st18" d="M231.4,73.2c-4.4-1.1-9.3-8-9.3-8l1.2-1.1c1.3,1.5,6.7,4.1,6.7,4.1c0-1.4,0-2.7,0.1-3.8
					c0.6-7.9,3.6-10.5,4.4-11c0.1-0.1,0.2-0.1,0.2-0.1s0,0.1,0,0.2c0,0.2,0,0.7,0.1,1.3C234.9,59.6,235.1,74.2,231.4,73.2z"/>
				<path class="st18" d="M223.3,64.1c0-0.2-0.1-2.9-0.7-3.4c-0.5-0.5-1.6-1.2-1.9-1.2c-0.3,0.1-1.3,1.8-0.8,3
					c0.5,1.2,2.2,2.7,2.2,2.7L223.3,64.1z"/>
				<g>
					<path class="st38" d="M224.4,64.5l-2.9,0.1c-0.1,0-0.2-0.1-0.2-0.2l-0.3-5.6c0-0.1,0.1-0.2,0.2-0.2l2.9-0.1
						c0.1,0,0.2,0.1,0.2,0.2l0.2,5.6C224.6,64.4,224.5,64.5,224.4,64.5z"/>
					<path class="st39" d="M223.7,64.5l-2.6,0.1c-0.2,0-0.3-0.1-0.3-0.3l-0.2-5.3c0-0.2,0.1-0.3,0.3-0.3l2.6-0.1
						c0.2,0,0.3,0.1,0.3,0.3l0.2,5.3C224,64.3,223.9,64.5,223.7,64.5z"/>
				</g>
				<path class="st18" d="M220.5,59.8c0,0,0.8-0.9,1.6-0.2c0.8,0.7-0.1,2.1-0.7,2.5c-0.7,0.4-0.9,0.6-0.9,0.6L220.5,59.8z"/>
			</g>
			<path class="st20" d="M241,118.9c-0.3,1.1-0.6,2.1-0.9,3c-0.1,0.2-0.1,0.4-0.2,0.6c0,0.1-0.1,0.2-0.1,0.3
				c-0.1,0.2-0.1,0.4-0.2,0.6c-0.1,0.2-0.2,0.5-0.2,0.7c-0.1,0.2-0.1,0.3-0.2,0.5c-0.9,2.4-1.6,3.9-1.6,3.9l-1.8-0.1
				c0,0,0.7-3.2,0.8-7.8c0-0.2,0-0.3,0-0.5c0-0.4,0-0.7,0-1.1c0-0.2,0-0.3,0-0.5c0-3.9-0.5-8.6-2.1-13c-1.3-3.6-2.2-7-2.8-10
				c-2.1-9.9-1.6-16.3-1.6-16.3l10.1,1.2l0.5,0.1c0,4.6,0.2,10.9,0.3,15.8c0,0.9,0,1.7,0.1,2.4c0.1,3.1,0.1,5.3,0.1,5.3
				C243,108,242.3,113.9,241,118.9z"/>
			<path class="st2" d="M238.1,44.6c0,0,2.4,2,0.2,4.4c0,0,1.8,0.2,2.4-0.3c0,0-0.1,0.2-0.2,0.4c0,0,2,0.1,2.9-0.6s0.3-11-5.3-9.9
				c0,0-4.8-0.4-4.3,5.2c0.4,5.5-1.4,5.5-1.4,5.5s0.5,0.2,0.7,0.2c0,0,0.4-0.1,0.4-0.3c0,0-0.1,0.3-0.2,0.4c0,0,1.9,0.2,2.9-0.6
				C237.3,48.3,238.4,45.7,238.1,44.6z"/>
			<path class="st18" d="M245.8,78c-1.9-4.3-2.8-5.5-2.8-6.8c0-1.1,0.5-2.2,1.5-5c0.2-0.7,0.4-1.3,0.5-2c0.8-5.4-2.3-11.3-4.3-11.7
				c-0.5-0.1-1.5-2.1-1.4-5.2l-0.2,0l-4.1,0.8c0,0,0.1,1.3,0.1,2.5c0,1-0.1,2-0.3,2.2c-0.3,0-0.6,0.1-0.6,0.1s-3.5,2.4-3.7,5.7
				c-0.3,4.4,2.8,9.6,0.1,18.4C227.7,86,246.9,80.3,245.8,78z"/>
			<path class="st20" d="M234.9,48.1c0,0,0.1,1.3,0.1,2.5c2.3-0.1,3.5-2.2,4-3.3L234.9,48.1z"/>
			<path class="st2" d="M239.5,46.8c0,0,1.2-1.9,1.5-3.5c0.2-1.2-0.4-5.4-4.7-4.8c0,0-1.3,0.1-2.4,0.9c-0.9,0.6-2.3,2-0.8,5.7
				l0.4,1.3L239.5,46.8z"/>
			<path class="st18" d="M234.2,49.2c0,0,5.4,0.1,5.4-3.3c0-3.4,0.7-5.6-2.8-5.8c-3.5-0.2-4.1,1.1-4.4,2.2
				C232.2,43.4,232.8,49.1,234.2,49.2z"/>
			<path class="st2" d="M234.4,40c0,0,1.5,4,3.8,4.5c2.3,0.6,3.3,0,3.3,0s-1.7-1.4-2.1-3.8C239.3,40.7,235.5,38.1,234.4,40z"/>
			<path class="st2" d="M234.7,40.3c0,0-1.1,0.9-1.4,1.7c-0.3,0.9-0.4,2.6-0.9,2.6c0,0-1.1-2.7,0.1-4.2
				C233.9,38.8,234.7,40.3,234.7,40.3z"/>
			<path class="st18" d="M252.9,82.5l-1.6,0.5c0,0-5.4-8.9-5.9-11.2c-0.2-0.8-0.5-2.3-1-4c-0.9-3.5-2.2-7.8-2.2-7.8l-0.4-1.7
				l-1.4-5.9c0,0,2.6,0.3,4.1,0.9c0.5,0.2,0.9,0.5,1,0.8c1.1,2.5,2.2,8.7,3,13.2c0.4,2.5,0.8,4.4,0.9,4.8
				C250.1,73.1,251.6,79.4,252.9,82.5z"/>
			<path class="st2" d="M234.5,40.5c0,0,1.1,4.1,3.9,5.5c0,0-2.9-2.5-3.1-5.3C235.1,37.9,234.5,40.5,234.5,40.5z"/>
			<path class="st18" d="M252.8,82.2c0,0,0.5,1.2,1,1.5c0.5,0.3,1,1.1,1.1,1.7c0.2,1.2-0.7,1.9-1.3,1.9c-0.7,0-1.3-0.9-1.7-3
				c0-0.1-0.6-1.3-0.6-1.3L252.8,82.2z"/>
			<path class="st18" d="M246.8,118c-0.6,6.2-3.1,10.2-3.1,10.2l-0.9,0.8c0,0-0.8-4.5-1.4-9.7c-0.5-4.9-1.3-10.1-2.1-11.7
				c-1.3-2.4-2.2-7.2-2.9-12.4c-1.1-8.5-1.5-17.7-1.5-17.7l10.2-0.5c1,1.7,1.5,4.6,1.6,7.8c0.1,3.4-0.2,7.2-0.5,10.6
				c-0.5,4.8-1.2,8.7-1.4,9.6l0,0c0,0.1,0,0.2,0.1,0.3C246.9,109.3,247.2,113.9,246.8,118z"/>
			<path class="st12" d="M234.9,63.8c-0.2,5.6-1.1,11.1-3.5,10.8c-3-0.4-3.8-3.2-3.9-5.3c-0.1-1.3,0-2.3,0-2.3s1.5,0,1.7-0.2
				c1.1-1,0.8-11.3,1.4-12.3c0.6-1.1,4.2-1.7,4.2-1.7S235.1,58.3,234.9,63.8z"/>
			<path class="st15" d="M234.9,63.8c-0.2,5.6-1.1,11.1-3.5,10.8c-3-0.4-3.8-3.2-3.9-5.3c0.7,0,2-0.2,2.5-1c0.7-1.1,3-8.3,3-8.3
				S233.9,61.6,234.9,63.8z"/>
			<path class="st2" d="M241,118.9c-0.3,1.1-0.6,2.1-0.9,3c-0.1,0.2-0.1,0.4-0.2,0.6c0,0.1-0.1,0.2-0.1,0.3
				c-0.1,0.2-0.1,0.4-0.2,0.6c-0.1,0.2-0.2,0.5-0.2,0.7c-0.1,0.2-0.1,0.3-0.2,0.5c-0.9,2.4-1.6,3.9-1.6,3.9l-1.8-0.1
				c0,0,0.7-3.2,0.8-7.8c0-0.2,0-0.3,0-0.5c0-0.4,0-0.7,0-1.1c0-0.2,0-0.3,0-0.5c0-3.9-0.5-8.6-2.1-13c-1.3-3.6-2.2-7-2.8-10
				c1.1,0.2,2,0,4.7-0.2c0.3,0,1.6,1.7,3,3.9c0.1,3.1,1.6,4.7,1.6,4.7C243,108,242.3,113.9,241,118.9z"/>
			<path class="st9" d="M246.8,118c-0.6,6.2-3.1,10.2-3.1,10.2l-0.9,0.8c0,0-0.8-4.5-1.4-9.7c-0.5-4.9-1.3-10.1-2.1-11.7
				c-1.3-2.4-2.2-7.2-2.9-12.4c0.9,0.4,4.1,1.4,9.8,0.1c-0.5,4.8-1.2,8.7-1.4,9.6l0,0c0,0.1,0,0.2,0.1,0.3
				C246.9,109.3,247.2,113.9,246.8,118z"/>
			<path class="st2" d="M231.7,71.4c0,0,6,1.5,11.3-0.2c0,0,2.9,6.1,3.7,8.8c0.8,2.6,2.1,8.1,2.1,8.1s-10.7,3.3-19.5,0
				c0,0-0.4-7.2,0.8-11C231.2,73.2,231.7,71.4,231.7,71.4z"/>
			<path class="st12" d="M253.5,74.2c0,1.4-1.4,2.3-3,2.7c-1.5,0.4-3.1,0.4-3.6,0.1c-0.9-0.6-2.2-6.9-2.6-8.8
				c-0.1-0.4-0.1-0.6-0.1-0.6s-1.1,2.6-1.1,2.9c0,0.1,0,0.3,0,0.4c0,0.2,0,0.3,0,0.3s-6,3-11.3,0.2c0,0-2.1-12.3-1.2-14.5
				c0.5-1.1,2.9-3.2,3.8-4.2c0.2-0.2,0.2-0.6,0.1-1c-0.1-0.3,0.2-0.6,0.5-0.5c0.6,0.2,1.7,0.1,2.9-0.3c0.6-0.2,1.2-0.5,1.8-0.9
				c0.2-0.1,0.4,0,0.4,0.2c0.1,0.7,0.3,2.1,0.7,2.1c0.6,0,4.4,0.5,4.7,0.9c0.1,0.2,1.1,2.4,2.3,5.4l0,0
				C250.2,64.3,253.5,72.4,253.5,74.2z"/>
			<path class="st15" d="M244.2,67.6c0,0-1.1,2.6-1.1,2.9c0,0.1,0,0.3,0,0.4c-0.5,0.4-1.2,0.8-1.8,1c-1.9,0.6-2.7-3-2.6-4.8
				c0.1-1.8,2.8-6.9,3.6-7C243.1,59.9,244.2,67.6,244.2,67.6z"/>
			<path class="st15" d="M244.3,68.1c-0.1-0.4-0.1-0.6-0.1-0.6C244.2,67.8,244.3,67.9,244.3,68.1z"/>
			<g>
				<path class="st6" d="M236.6,72.5c-3.4,0-4.8-1-4.9-1l-0.2-1.6c0,0,4.6,2.8,11.7,0.1l-0.2,1.2C240.3,72.3,238.3,72.5,236.6,72.5z
					"/>
			</g>
			<path class="st15" d="M253.5,74.2c0,1.4-1.4,2.3-3,2.7c2.1-2.5-2.5-17.8-2.6-18.2C250.2,64.3,253.5,72.4,253.5,74.2z"/>
			<path class="st15" d="M240.8,52.4c0,0-2.9,1.8-5,1.4c0,0-0.5-0.3,0.2-0.7c0.7-0.3,2.2-1.2,1.9-2.1c0.6-0.2,1.2-0.5,1.8-0.9
				c0.2-0.1,0.4,0,0.4,0.2C240.2,51,240.4,52.4,240.8,52.4z"/>
			<g>
				<path class="st2" d="M238.6,129.9h-1.1c-0.4-0.1-0.7-0.2-1.1-0.2c-0.6-0.1-0.9,0.2-0.9,0.2l0,0h-4.8c-0.1-0.2,0-0.6,0.1-0.9
					c0.1-0.2,0.2-0.4,0.5-0.4c0.5-0.1,1.5-0.3,2.5-1.1c0.5-0.5,2.5-1.7,2.5-1.7l0,0c0,0,0.3,0.1,1.2,0.8c0.5,0.4,1.3-0.6,1.3-0.6
					s0.2,0.1,0.3,0.4c0.1,0.2,0.2,0.4,0.1,0.7c-0.1,0.4,0.2,1.2,0.3,1.8c0.1,0.3,0.2,0.6,0.2,0.6S239.6,129.8,238.6,129.9z"/>
				<path class="st40" d="M238.9,126.4c-0.3,0.2-0.8,0.6-1.2,0.6c-0.5,0.1-1.5-1.2-1.5-1.2l0,0c0,0,0.3,0.1,1.2,0.8
					c0.5,0.4,1.3-0.6,1.3-0.6S238.8,126.2,238.9,126.4z"/>
				<path class="st40" d="M238.6,129.9h-1.1c-0.4-0.1-0.7-0.2-1.1-0.2c-0.6-0.1-0.9,0.2-0.9,0.2l0,0h-4.8c-0.1-0.2,0-0.6,0.1-0.9
					c0.1-0.1,0.2,0.6,0.3,0.7s4,0,4.2-0.1c0.2-0.2,0.9-0.4,1.8-0.2c0.8,0.2,2-0.3,2.3-0.4c0.1,0.3,0.2,0.6,0.2,0.6
					S239.6,129.8,238.6,129.9z"/>
			</g>
			<g>
				<path class="st2" d="M244.7,129.9h-1.1c-0.4-0.1-0.7-0.2-1.1-0.2c-0.6-0.1-0.9,0.2-0.9,0.2l0,0h-4.8c-0.1-0.2,0-0.6,0.1-0.9
					c0.1-0.2,0.2-0.4,0.5-0.4c0.5-0.1,1.5-0.3,2.5-1.1c0.5-0.5,2.5-1.7,2.5-1.7l0,0c0,0,0.3,0.1,1.2,0.8c0.5,0.4,1.3-0.6,1.3-0.6
					s0.2,0.1,0.3,0.4c0.1,0.2,0.2,0.4,0.1,0.7c-0.1,0.4,0.2,1.2,0.3,1.8c0.1,0.3,0.2,0.6,0.2,0.6S245.7,129.8,244.7,129.9z"/>
				<path class="st40" d="M245,126.4c-0.3,0.2-0.8,0.6-1.2,0.6c-0.5,0.1-1.5-1.2-1.5-1.2l0,0c0,0,0.3,0.1,1.2,0.8
					c0.5,0.4,1.3-0.6,1.3-0.6S244.9,126.2,245,126.4z"/>
				<path class="st40" d="M244.7,129.9h-1.1c-0.4-0.1-0.7-0.2-1.1-0.2c-0.6-0.1-0.9,0.2-0.9,0.2l0,0h-4.8c-0.1-0.2,0-0.6,0.1-0.9
					c0.1-0.1,0.2,0.6,0.3,0.7c0.1,0.1,4,0,4.2-0.1c0.2-0.2,0.9-0.4,1.8-0.2c0.8,0.2,2-0.3,2.3-0.4c0.1,0.3,0.2,0.6,0.2,0.6
					S245.7,129.8,244.7,129.9z"/>
			</g>
		</g>
		<g>
			<path class="st35" d="M291.4,106.4c-0.7,1.8-4.2,5.4-7.8,8.8c-4.3,4.1-8.8,7.9-8.8,7.9s-2.1,0.6-1.2-2.4c0,0,4.9-9.1,7.1-11.8
				c0.6-0.8,1.2-1.5,1.8-2.1c1.5-1.5,2.7-2.5,2.7-2.5s-0.3-0.4-0.7-1.2c-2.2-3.8-8.6-15.4-6.6-20.5c2.4-6.2,8.2-9,8.2-9
				s1.9,7.8,3.4,15.9C290.9,97,292.1,104.6,291.4,106.4z"/>
			<path class="st36" d="M289.4,89.6c-1.1,5-2.9,12-5.1,13.6c-2.2-3.8-8.6-15.4-6.6-20.5c2.4-6.2,8.2-9,8.2-9S287.9,81.5,289.4,89.6
				z"/>
			<path class="st36" d="M283.5,115.2c-4.3,4.1-8.8,7.9-8.8,7.9s-2.1,0.6-1.2-2.4c0,0,4.9-9.1,7.1-11.8c0.6-0.8,1.2-1.5,1.8-2.1
				C282.4,109.2,282.4,113.1,283.5,115.2z"/>
			<path class="st3" d="M288.6,85.4c0,0-5.1-12.9-4.9-13.3c0.2-0.2,0.5-7.3,0.7-12.6c0.1-3.2,0.2-5.8,0.2-5.8s2.3,0.8,2.8,6.3
				c0.1,1.1,0.2,2.1,0.2,3c0.2,3.9-0.1,6.7,0.5,8c0.7,1.6,0.5,9,0.7,9.8C289.1,81.6,290.2,83.5,288.6,85.4z"/>
			<path class="st35" d="M284.5,76.8l-0.4-1.5c-2.9,1.2-11.4-0.6-11.4-0.6s-2.5,3-1.2,9.1c0.6,3,2.9,15.6,3.8,19.3
				c0.3,1.3,0.6,2.3,0.7,2.7l0,0c0,0.1,0,0.2,0,0.3c-0.4,1-0.7,2-0.9,3c-2.1,9.8,3.6,20.7,3.6,20.7l1-0.6c0,0,0.4-13.1,1.4-19
				c0.2-1,0.4-1.8,0.6-2.3c0.6-1.4,1-3.7,1.3-6.3c0.6-5,0.7-11.4,0.6-16.3C283.8,85.2,284.5,76.8,284.5,76.8z"/>
			<path class="st3" d="M271.5,78.4c-1.2-1.8,2.9-9,2.7-9.7c-0.3-1.3-0.9-2.8-1.6-4.2c-0.6-1.3-1.3-2.5-1.5-3.3
				c0.2-0.3,0.4-0.6,0.6-0.8c0.3-0.4,0.5-0.8,0.7-1.1c0.2-0.4,0.3-0.7,0.2-1c-0.1-0.3-0.2-0.5-0.3-0.8c-0.1-0.1-0.1-0.2-0.2-0.3
				c-0.6-1.2-1.5-2.2-1.5-2.2c1.4-0.9,3.6-1.4,3.7-1.3c0.2-0.1,0.3-0.1,0.4-0.1c0.1,0,0.2,0,0.2-0.1c0.3-0.1,0.6-0.1,0.8-0.2
				c0.5-0.5,1.1-2.4,0.9-5.2l0.2,0l4.1,0.6c0,0,0,1.3,0.1,2.5c0.1,0.9,0.2,1.8,0.4,2c0.3,0,0.5,0,0.5,0l0,0l0,0c0.2,0,0.4,0,0.6,0.1
				c0,0,0,0,0,0c0.4,0,0.7,0.1,0.9,0.1c0,0,0,0,0.1,0c0.7,0.1,0.9,0.3,0.9,0.3l0,0c0,1.3,2.1,3.6,1.9,6.5c0,0.1-1.1,7.8-1.1,7.9
				c0.1,2.2,1.2,8.4,1.2,8.4C287.7,78.5,272.2,80.2,271.5,78.4z"/>
			<path class="st5" d="M275.3,38.2c-0.1-0.2-1-2.5-4.6-1.5c0,0,1.8-0.3,2.4,0.3c0,0-1.5-0.6-2.4,0c-0.9,0.6-0.9,2.5-0.7,3
				c0.2,0.6,1.3,2.2,1.9,2.1c0.3,0,0.5-0.1,0.7-0.2c-0.1,0.3-0.2,0.6-0.2,1c-0.5,3.3,1.9,5.7,3,5c0.7-0.4,1.3,0.8,1.3,0.8l5.6-8.4
				C282.4,40.5,277.8,35.7,275.3,38.2z"/>
			<path class="st4" d="M281.1,48.7c0,0,0,1.3,0.1,2.5c-2.3,0.1-3.6-1.9-4.2-3.1L281.1,48.7z"/>
			<path class="st3" d="M282,49.8c0,0-5.4,0.4-5.6-2.9c-0.2-3.4-1-5.6,2.4-6s4.2,0.8,4.5,1.9C283.6,43.9,283.4,49.6,282,49.8z"/>
			<path class="st5" d="M283,41c-0.9-1-1.5-0.7-1.8-0.4c-3-1.4-4.8,1.1-4.8,1.1c-0.2,2.4-1.9,3.9-1.9,3.9s1,0.5,3.3-0.2
				c0.7-0.2,1.3-0.8,1.8-1.4c-0.8,1.6-2,2.8-2,2.8c2.6-1.4,3.5-5.3,3.6-5.7c0.3,0.3,1,0.9,1.3,1.5c0.3,0.8,0.6,2.6,1.1,2.5
				C283.4,45.2,284.4,42.4,283,41z"/>
			<path class="st2" d="M285.2,130.1h-8.4c0,0-0.3-1.3,0.2-2.2c0.5-0.8,0.2-1.3,0-2c0.4,0.2,0.8,0.4,1.4,0.4c0.4,0,1.1-0.3,1.5-0.6
				c0.4,0.4,1.7,2.3,2.2,2.6C282.6,128.6,285,128.5,285.2,130.1z"/>
			<path class="st2" d="M272.8,129.9l-3.1-7.8c0,0,1.1-0.8,2.2-0.6c0.9,0.1,1.3-0.2,1.8-0.8c0,0.4,0.1,0.9,0.3,1.4
				c0.2,0.4,0.5,0.7,0.9,1c-0.2,0.5-1.3,2.6-1.4,3.2C273.1,126.9,274.2,129.1,272.8,129.9z"/>
			<path class="st9" d="M285.5,68.2c0-0.1,0.3-2.5,0.6-4.6c0.6-0.1,1.4-0.2,2.1-0.5c0-0.9-0.7-9-4-9.4c-0.2,0-0.3-0.1-0.5-0.1
				c0,0,0,0-0.1,0c-0.4-0.1-0.8-0.1-0.9-0.1c0,0,0,0,0,0s1,2.9,1,3.2c0,0.3-3.3,0.4-5.4,0.5s-3.3-3.5-3.3-3.6c-0.1,0-0.2,0-0.2,0.1
				c-0.1,0-2.9,0.5-4.1,1.4c0,0,0.9,1,1.5,2.2c0.1,0.1,0.1,0.2,0.2,0.3c0.1,0.2,0.2,0.5,0.3,0.8c0.1,0.3,0,0.7-0.2,1
				c-0.2,0.3-0.4,0.7-0.7,1.1c-0.2,0.3-0.4,0.5-0.6,0.8c0.1,0.3,0.2,0.6,0.4,0.9l0,0c0.3,0.7,0.7,1.5,1.1,2.4
				c0.6,1.3,1.3,2.8,1.6,4.2c0.1,0.7-3.9,7.9-2.7,9.7c0.2,0.5,1.7,0.8,3.7,0.8c4.7,0,12.2-1.2,11.5-2.6
				C286.7,76.6,285.6,70.4,285.5,68.2z"/>
			<path class="st2" d="M275.2,79.2c-2,0-3.5-0.2-3.7-0.8c-1.2-1.8,2.9-9,2.7-9.7c-0.3-1.3-0.9-2.8-1.6-4.2
				c-0.4-0.9-0.8-1.7-1.1-2.4l0,0c0.2-0.7,0.3-1,0.3-1s4.3,5,5.3,7.3C277.8,70.3,276,76.5,275.2,79.2z"/>
			<path class="st3" d="M273.1,75.8l-0.8,1.5c-5.4-2.2-8.9-7-8.9-7c-0.2-2.8,1.1-5.9,2.6-8.7c0.3-0.5,0.5-0.9,0.8-1.3
				c1.1,0.9,2.6,2.2,4.1,3c-0.2,0.4-0.5,0.8-0.8,1.3c-1.2,2-2.8,4.5-3,4.7C266.8,69.7,273.1,75.8,273.1,75.8z"/>
			<path class="st9" d="M270.3,65.2c-2.7-0.2-4.7-3.7-4.7-3.7c2.1-3.7,5-6.6,5-6.6C278.1,57.8,271.5,64.4,270.3,65.2z"/>
			<path class="st3" d="M273.1,75.8c0,0,0.5-0.1,0.8-0.3s1.2-1,1.3-0.8c0.1,0.2-0.7,0.6-0.3,0.6c0.4,0.1,1-0.2,1.6-0.1
				c0.6,0.1,1.6,1.5,1.3,1.7c-0.3,0.2-1.4-0.4-1.6-0.2c-0.3,0.2-2.3,1.3-3.9,0.6C270.7,76.5,273.1,75.8,273.1,75.8z"/>
		</g>
		<g>
			<path class="st5" d="M191,43.9c0,0-3.9-0.2-4-2.4c-0.1-2.2-3.3-3.9-2.4-5.7c1.1-2.2,0.1-4.3,1.5-5.8c1.6-1.6,3.6-0.7,4.6-1.7
				c1.1-1,3-1.8,4.9-0.7c1.9,1.2,3.4,0.5,4.6,1.7c1.4,1.2,0.9,2.8,2,3.7c1,0.8,0.6,2.9-0.3,4.7c-0.6,1.3,0.8,2.4-1.7,3.9
				c-1,0.6-0.8,2.1-4,2.4C194.9,44.1,191.8,43.4,191,43.9z"/>
			<path class="st2" d="M183.6,130.1c0,0,0-1.6,0.2-2.1c0.2-0.5,1-2.6,1-2.6h3.2c0,0,0.6,1.9,0.6,2.6c0,0.6,0,2.2,0,2.2L183.6,130.1
				L183.6,130.1z"/>
			<path class="st2" d="M204,130.1c0,0,0-1.6-0.2-2.1c-0.2-0.5-1-2.6-1-2.6h-3.2c0,0-0.6,1.9-0.6,2.6c0,0.6,0,2.2,0,2.2L204,130.1
				L204,130.1z"/>
			<path class="st10" d="M191.1,42c0,0-0.1,3.5-0.6,5.1l-3.5,2.5l13.3,2l-3.2-4.4c0,0-1-4.7-0.5-6.4C197.2,38.9,191.1,42,191.1,42z"
				/>
			<path class="st11" d="M191.1,42.4c0,0,1.1,2.5,3,2.5c2-0.1,2.4-2.3,2.4-2.3L191.1,42.4z"/>
			<path class="st10" d="M193.9,43.9c-1.4,0-4.1-1.9-4.1-4.3v-3.7c0-0.9,0.6-1.6,1.3-1.6h5.5c0.7,0,1.3,0.7,1.3,1.6v3.5
				C198,41.9,195.6,44,193.9,43.9z"/>
			<path class="st12" d="M184,75.7c0,0,0.6,17.1-0.3,26.9s0,23.4,0,23.4s2.7,1.5,5.6,0c0,0,3.2-18.9,3.2-23.4
				c0-4.8,3.5-26.2,3.5-26.2L184,75.7z"/>
			<path class="st12" d="M203.8,126c0,0-2.7,1.5-5.6,0c0,0-3.2-18.9-3.2-23.4c0-2-0.6-7-1.3-12.1c-1-6.9-2.1-14.1-2.1-14.1l12.4-0.8
				c0,0-1,17.2-0.2,26.9C204.7,112.4,203.8,126,203.8,126z"/>
			<path class="st6" d="M201.7,47.9L201.7,47.9c-1.6-0.4-3.1-0.7-4.5-0.8c-1.2,1.6-2.1,2-3.3,2.5c-1.8-0.3-3.4-2.5-3.4-2.5
				c-2,0.2-3.3,0.6-3.9,0.7c-0.1,0-5.9,0.8-14.2,17.5c0,0,0.4,1.5,2.6,4.2c1.5,1.9,3.9,4.4,7.7,7.3c0,0,0.4-0.8,0.7-2
				c0,0-2.2-4.3-3.6-7.2c-0.6-1.4-1.1-2.5-1-2.6c0.2-0.2,2.9-2.5,4.9-4.3c0,0.4,0,0.8,0,1.2c0.1,3.7,0.3,7.4-0.2,11.4
				c-0.6,5.3,0.4,5.2,0.4,5.2s1.4,0.3,3.5,0.6c1.8,0.2,4.1,0.5,6.2,0.5c4.8,0,10.1-1,10.1-1c1.5,0-0.4-9.5-0.7-15.2
				c-0.1-1.3-0.1-2.5-0.2-3.6c1.8,1.6,5.9,5.1,6.2,5.3c0.1,0.1-0.3,1.2-1,2.6c-1.3,2.9-3.6,7.2-3.6,7.2c0.3,1.2,0.7,2,0.7,2
				c3.7-2.9,6.1-5.4,7.7-7.3c2.2-2.7,2.6-4.2,2.6-4.2C207.3,48.4,201.7,47.9,201.7,47.9z"/>
			<path class="st8" d="M187.5,79.1c-2-0.3-3.5-0.6-3.5-0.6s-1.1,0.1-0.4-5.2c0.5-4,0.3-7.7,0.2-11.4c0-0.4,0-0.9,0-1.5
				c0.3,0.5,3.7,6.1,4.7,10.2C189.2,73.7,188.2,77.2,187.5,79.1z"/>
			<path class="st15" d="M195.1,102.6c0-2-0.6-7-1.3-12.1c0.7-3,2.6-6,2.6-6C198.6,91,195.1,102.6,195.1,102.6z"/>
			<path class="st10" d="M183,75.1c0,0,2-1.9,2.8-0.8c0.8,1,1,2.7,0.3,2.6c-0.6-0.1-1.9-0.7-2.1-0.4s-1,0.9-1.3,0.4
				C182.6,76.4,183,75.1,183,75.1z"/>
			<path class="st10" d="M183.5,74.9c-0.3,1.2-0.7,2-0.7,2c-3.7-2.9-6.1-5.4-7.7-7.3c1.2-0.1,2.8-0.5,4.8-1.9
				C181.3,70.6,183.5,74.9,183.5,74.9z"/>
			<path class="st10" d="M205.1,75.1c0,0-2-1.9-2.8-0.8c-0.8,1-1,2.7-0.3,2.6c0.6-0.1,1.9-0.7,2.1-0.4c0.2,0.3,1,0.9,1.3,0.4
				C205.6,76.4,205.1,75.1,205.1,75.1z"/>
			<path class="st10" d="M204.6,74.9c0.3,1.2,0.7,2,0.7,2c3.7-2.9,6.1-5.4,7.7-7.3c-1.2-0.1-2.8-0.5-4.8-1.9
				C206.8,70.6,204.6,74.9,204.6,74.9z"/>
			<path class="st8" d="M209.1,65c-0.3-0.2-4.4-3.8-6.2-5.4c0,0,1.8-1.4,2.9,0.6C207,62.3,209.1,65,209.1,65z"/>
			<path class="st8" d="M215.6,65.3c0,0-0.4,1.5-2.6,4.2C210.5,69.5,215.6,65.3,215.6,65.3z"/>
			<path class="st5" d="M189.8,37.4c0,0,1-3,4.3-2.6s3.6,1.2,3.9,2c0.3,0.8,1-3,1-3l-3.9-1.1c0,0-4.7,0.5-5,1.3
				c-0.3,0.8-0.3,0.8-0.3,0.8V37.4z"/>
			<g>
				<path class="st5" d="M191.9,39.7c-0.6,0-1.7-0.1-1.9-1.1c-0.1-0.3,0-0.6,0.2-0.8c0.2-0.2,0.5-0.4,0.8-0.4h1.7
					c0.3,0,0.6,0.1,0.7,0.3c0.2,0.3,0,0.8,0,1c-0.3,0.6-0.6,0.9-1.2,0.9C192.2,39.7,192.1,39.7,191.9,39.7z M191,37.6
					c-0.3,0-0.6,0.1-0.7,0.3c-0.1,0.2-0.2,0.4-0.1,0.7c0.1,0.5,0.5,0.8,1.1,1c0.5,0.1,1,0,1,0l0,0c0.5,0,0.8-0.3,1.1-0.9
					c0.1-0.1,0.2-0.6,0-0.9c-0.1-0.2-0.3-0.2-0.6-0.2C192.7,37.6,191,37.6,191,37.6z"/>
			</g>
			<g>
				<path class="st5" d="M195.9,39.7c-0.2,0-0.3,0-0.3,0c-0.5,0-0.9-0.3-1.2-0.9c-0.1-0.2-0.2-0.7,0-1c0.1-0.2,0.4-0.3,0.7-0.3h1.7
					c0.3,0,0.6,0.1,0.8,0.4c0.2,0.2,0.2,0.5,0.2,0.8C197.6,39.6,196.5,39.7,195.9,39.7z M195.1,37.6c-0.3,0-0.5,0.1-0.6,0.2
					c-0.2,0.3,0,0.7,0,0.9c0.3,0.6,0.6,0.9,1.1,0.9l0,0c0,0,0.5,0.1,1,0c0.6-0.1,1-0.5,1.1-1c0.1-0.3,0-0.5-0.1-0.7
					c-0.2-0.2-0.4-0.3-0.7-0.3C196.8,37.6,195.1,37.6,195.1,37.6z"/>
			</g>
			<g>
				<path class="st5" d="M193.3,38.3C193.3,38.3,193.2,38.3,193.3,38.3c-0.1-0.1-0.1-0.1,0-0.1c0,0,0.7-0.3,1.3,0c0,0,0,0.1,0,0.1
					c0,0-0.1,0-0.1,0C194,38,193.3,38.3,193.3,38.3C193.3,38.3,193.3,38.3,193.3,38.3z"/>
			</g>
		</g>
		<g>
			<g>
				<path class="st41" d="M182.3,77.8l-1.6,0.3c0,0-4.3-6.7-4.5-8.7c-0.1-2-4-10.5,0.5-15.8c0.2-0.2,0.4-0.5,0.7-0.7l0,0
					c0,0,0,0,0,0c0.1,0.2,0.5,0.8,0.9,2.3c0.7,2.3,1.5,6.5,1.7,13.8C180,68.9,181.1,75.1,182.3,77.8z"/>
				<path class="st41" d="M182.3,77.8c0,0,1.7,1.9,1.8,2.7c0.1,0.8-0.6,1.8-1.4,1.9c-0.8,0.2-0.3-1-0.4-1.5c-0.1-0.5-0.6-1.2-0.6-1
					c0,0.2,0.3,1.1,0.2,1.2c-0.1,0.1-0.3,0.2-0.4-0.3c-0.1-0.5-0.9-1-0.7-1.5c0.1-0.5,0-0.9-0.2-1.5c-0.2-0.7-0.6-1.5-0.6-1.5
					l1.2-0.3L182.3,77.8z"/>
			</g>
			<path class="st5" d="M170.8,43.1c0,0,0,0.8,0.4,1c0.5,0.2-0.5,1.9-0.4,3.1c0.1,1.2,0.6,1.7,0.6,1.7s-0.3-0.6-0.1-1.1
				c0,0,0,0.8,0.6,1.3c0.6,0.4,0.4,0.8,0.4,0.8s1.4-0.4,1.4-1.4c0,0,0.1,0.5,0,0.7c0,0,1.2-0.9,1.2-1.9c0.1-1-0.9-1.9-1.4-1.9
				c-0.5,0-1.5-0.9-1.4-1.2C172.2,43.6,170.8,43.1,170.8,43.1z"/>
			<path class="st42" d="M174.6,37.3c-0.8-1.2-4-0.5-7.1,1.5s-5,4.7-4.2,5.9c0.8,1.2,4,0.5,7.1-1.5
				C173.5,41.2,175.4,38.5,174.6,37.3z"/>
			<path class="st9" d="M181.5,127.2l-1.7,0.6c0,0-7.3-10.2-8.2-19.1c-0.2-1.6-0.1-3.1,0.2-4.6c0,0-0.1-0.4-0.2-1.1
				c-0.1-0.3-0.1-0.7-0.2-1.2c-0.2-1.4-0.6-3.2-0.9-5.4c-0.9-4.9-2-11.2-2.8-15.8l0.5-0.1L173,79l1-3.2l3.7-1c0,0,0.8,1.6,1.5,9.2
				c0.1,1,0.3,2.1,0.4,3.3c0.3,3.6,0.3,8.1-0.3,13.2c-0.2,1.3-0.4,2.7-0.6,4.1c-0.2,1-0.2,2.4-0.1,4
				C178.8,115.9,181.5,127.2,181.5,127.2z"/>
			<path class="st2" d="M179.5,87.2l-8,15.8c-0.1-0.3-0.1-0.7-0.2-1.2c-0.2-1.4-0.6-3.2-0.9-5.4c-0.9-4.9-2-11.2-2.8-15.8l0.5-0.1
				L173,79l1-3.2l4.4-1.3c0,0,0.1,1.9,0.8,9.5C179.3,85,179.5,86.1,179.5,87.2z"/>
			<path class="st5" d="M172.8,37.4l-5.6,8.5c0,0-0.6-1.3-1.4-0.8c-1.1,0.7-3.5-1.7-3-5.1c0-0.2,0.1-0.4,0.1-0.6
				c1.1-1.6,2.4-3.4,3.3-4.7C168.8,33.2,172.8,37.4,172.8,37.4z"/>
			<path class="st3" d="M175.3,54.7c-0.8,0.7-1.8,1.4-3.1,1.9c-5,1.9-7.5-2.2-8.7-5.1c0.6-0.5,1.3-0.7,1.7-0.8
				c0.4-0.1,0.8-0.2,1.1-0.2c0.5-0.5,1.1-2.4,0.9-5.3l0.3,0l4.2,0.6c0,0,0,1.3,0.1,2.5c0.1,1,0.2,1.9,0.4,2.1c0.3,0,0.5,0,0.5,0l0,0
				C172.6,50.5,174.1,52.3,175.3,54.7z"/>
			<path class="st4" d="M171.6,45.8c0,0,0,1.3,0.1,2.5c-2.3,0.1-3.7-2-4.3-3.1L171.6,45.8z"/>
			<path class="st3" d="M172.5,46.9c0,0-5.5,0.4-5.7-3c-0.2-3.4-1.1-5.7,2.4-6.1c3.5-0.4,4.3,0.8,4.6,2
				C174.1,40.9,173.9,46.7,172.5,46.9z"/>
			<path class="st5" d="M173.5,37.9c-0.9-1-1.5-0.7-1.9-0.4c-3.1-1.5-4.9,1.1-4.9,1.1c-0.2,2.5-1.9,4-1.9,4s1,0.6,3.3-0.2
				c0.7-0.2,1.3-0.8,1.8-1.4c-0.8,1.6-2,2.8-2,2.8c2.7-1.4,3.5-5.3,3.6-5.8c0.4,0.3,1.1,0.9,1.3,1.5c0.3,0.9,0.6,2.6,1.1,2.5
				C173.9,42.2,174.9,39.4,173.5,37.9z"/>
			<path class="st2" d="M186.7,130.1h-8.5c0,0-0.3-1.4,0.2-2.3c0.5-0.8,0.3-1.3-0.1-2c0.4,0.2,0.9,0.3,1.4,0.3
				c0.4,0,0.9-0.2,1.3-0.4c0.4,0.4,1.9,2.2,2.4,2.5C184.1,128.6,186.6,128.5,186.7,130.1z"/>
			<path class="st43" d="M162.7,41.7c0,0-2.5-5.1,1-7.1c3.6-2,6.2-1.2,8.1,1.2L162.7,41.7z"/>
			<path class="st35" d="M178.9,55.6c-0.7-3.4-2.8-4.4-2.8-4.4s-0.4-0.5-2.3-0.6c-0.3,0-0.6-0.1-1-0.1c-0.1,0-0.2,0-0.2,0l0,0
				c0.1,0.1,2.1,3.2,1.9,4c-0.1,0.8-7.3,0.5-7.8,0.1c-0.4-0.3-1.1-2.6-1.4-3.5c-0.1-0.2-0.1-0.4-0.1-0.4s-2.5,0.4-3.7,1.4
				c0,0,0.9,1,1.5,2.2c0.1,0.1,0.1,0.2,0.2,0.4c0.1,0.3,0.2,0.5,0.3,0.8c0.1,0.3,0,0.7-0.2,1.1c-0.2,0.3-0.4,0.7-0.7,1.1
				c-0.2,0.3-0.4,0.5-0.6,0.8c0.1,0.5,0.3,1.1,0.6,1.8c0.4,1.4,1,3.1,1.4,4.9c0.1,0.7,0.1,1.4,0,2.1c-0.1,0.3-0.2,0.5-0.3,0.8
				c-0.2,0.4-0.2,1-0.4,1.5c-0.8,2.1-1.8,4.9-0.8,6.4c0.6,1.9,15.3-2.7,14.4-4.6c0,0,0.6-10.2,1-13.4c0-0.1,0-0.2,0-0.3
				c0-0.2,0-0.4,0-0.5C178.9,56.5,178.9,55.6,178.9,55.6z"/>
			<path class="st44" d="M177,35.3c-0.7-1.2-3.3-1-6.4,0.3c-1.2,0.5-2.5,1.2-3.8,2c-1.6,1-3,2.1-4.1,3.2c-2,2-3,3.9-2.4,5
				c0.7,1.2,3.3,1,6.4-0.3c-0.3-0.3-0.6-0.5-1-0.3c-0.4,0.2-0.9,0.1-1.4-0.3c-0.4-0.1-0.7-0.2-0.8-0.5c-0.1-0.2-0.2-0.4-0.1-0.7
				c0.2-1.2,1.8-3,4.2-4.5c1.9-1.2,3.7-1.8,5-1.9c0.7,0,1.3,0.1,1.5,0.5c0.2,0.3,0.2,0.8-0.1,1.3c0.1,0.6,0.1,1.1,0.1,1.7
				C176.6,38.6,177.8,36.5,177,35.3z"/>
			<path class="st36" d="M168.8,68.4c-2.1,0.7-4.2,1-5.8,1.1c0.2-0.5,0.4-1,0.5-1.4c0.1-0.3,0.2-0.5,0.3-0.8c0.2-0.7,0.2-1.4,0-2.1
				c-0.4-1.8-1.4-5-1.8-6.4c1.2-2.7,2.4-1.2,2.4-1.2s3.6,1.6,5.1,4.6C171,65.1,170.6,67.8,168.8,68.4z"/>
			<path class="st9" d="M164.2,50.9c0,0,3.4,2.2,4.3,6.8l1-0.3c0,0-0.4-3.3-4.4-6.7L164.2,50.9z"/>
			<path class="st9" d="M176.3,57.8l-1.1,0.1c0.2-4-1.8-6.7-2.4-7.4c0.4,0,0.7,0.1,1,0.1C176.6,54.7,176.3,57.8,176.3,57.8z"/>
			<path class="st9" d="M177.6,75.1l0.8-0.3l-0.8-11.4c0,0-0.7-5.2-0.7-6.1s-0.7-1.4-0.7-1.4s-5.4,0.3-6.9,0.4c-1.5,0.1-1.4,1-1.4,1
				s0.7,2.8,0.7,3.1c1,4.3-4.8,7-4.8,7s-0.9,2.5-1.7,4.8c-1.3,4-0.1,9.8-0.1,9.8c0.2,3.1,0.5,16.1,0.9,20c0.1,1.4,0.2,2.4,0.3,2.8
				l0,0c0,0.1,0,0.2-0.1,0.3c-0.5,0.9-1,1.9-1.3,2.8c-3.6,9.6,0.6,21.3,0.6,21.3l1.1-0.4c0,0,2.4-13.1,4.3-18.9
				c0.3-1,0.6-1.8,0.9-2.2c0.8-1.3,1.6-3.5,2.3-6.1c1.3-4.9,2.4-11.4,3.1-16.3c0.1,0,1.1-6.9,3.7-10
				C177.6,75.2,177.6,75.2,177.6,75.1z"/>
			<g>
				<g>
					<path class="st36" d="M168.4,57.3c-0.1-0.2,0.1-0.5,0.3-0.6s0.5,0.1,0.6,0.3c0.1,0.2-0.1,0.5-0.3,0.6
						C168.8,57.7,168.5,57.5,168.4,57.3z"/>
					<path class="st35" d="M168.5,57.3c-0.1-0.2,0.1-0.5,0.3-0.6s0.5,0.1,0.6,0.3c0.1,0.2-0.1,0.5-0.3,0.6
						C168.8,57.6,168.6,57.5,168.5,57.3z"/>
				</g>
				<path class="st9" d="M168.7,57.1C168.7,57.1,168.7,57.1,168.7,57.1c0.1-0.1,0.1,0,0.1,0S168.8,57.2,168.7,57.1
					C168.7,57.2,168.7,57.2,168.7,57.1z"/>
				<path class="st9" d="M169.1,57.1C169.1,57.1,169.1,57.1,169.1,57.1c0.1-0.1,0.1,0,0.1,0S169.2,57.2,169.1,57.1
					C169.1,57.2,169.1,57.2,169.1,57.1z"/>
			</g>
			<g>
				<g>
					<path class="st36" d="M175.1,56.7c-0.1-0.2,0.1-0.5,0.3-0.6s0.5,0.1,0.6,0.3s-0.1,0.5-0.3,0.6C175.5,57.1,175.2,57,175.1,56.7z
						"/>
					<path class="st35" d="M175.2,56.7c-0.1-0.2,0.1-0.5,0.3-0.6c0.2-0.1,0.5,0.1,0.6,0.3c0.1,0.2-0.1,0.5-0.3,0.6
						C175.5,57.1,175.3,56.9,175.2,56.7z"/>
				</g>
				<path class="st9" d="M175.4,56.6C175.4,56.5,175.4,56.5,175.4,56.6c0.1-0.1,0.1,0,0.1,0S175.5,56.6,175.4,56.6
					C175.4,56.6,175.4,56.6,175.4,56.6z"/>
				<path class="st9" d="M175.8,56.6C175.8,56.5,175.8,56.5,175.8,56.6c0.1-0.1,0.1,0,0.1,0S175.9,56.6,175.8,56.6
					C175.8,56.6,175.8,56.6,175.8,56.6z"/>
			</g>
			<path class="st5" d="M163.5,43.7c0,0,0,0.8,0.4,1c0.5,0.2-0.5,1.9-0.4,3.1s0.6,1.7,0.6,1.7s-0.3-0.7-0.1-1.1c0,0,0,0.8,0.6,1.3
				c0.6,0.4,0.4,0.8,0.4,0.8s1.4-0.4,1.4-1.4c0,0,0.1,0.5,0,0.7c0,0,1.2-0.9,1.2-1.9c0.1-1-0.9-1.9-1.4-1.9c-0.5,0-1.5-0.9-1.4-1.2
				C164.9,44.2,163.5,43.7,163.5,43.7z"/>
			<path class="st3" d="M163.5,70.9c0,0,1.6,1,1.9,1c0.6,0,1.7-1.2,2.6-0.7c0.9,0.6,1.8,1.5,1.5,1.9c-0.3,0.4-1.4-0.1-1.9,0
				c-0.5,0.1-1.8,0.7-2.7,0.4c-0.9-0.3-2.8-1.5-2.8-1.5L163.5,70.9z"/>
			<path class="st3" d="M161.5,52.1c0,0-6.1,7.2-8.1,11.3c0,0,2.4,5.3,10.3,9.6c0,0,0.3-0.1,0.9-0.5c0.8-0.6-0.1-1-0.3-1.1
				c-2-1.3-5.5-6.9-5.6-7.3c-0.1-0.5,4.4-4.8,5.7-6.4C165.8,56,163.6,51.3,161.5,52.1z"/>
			<path class="st45" d="M170.8,45c0,0,0.8,0.5,1.4,0.4c0.6-0.1,0.9-0.8,0.9-0.8S171.9,44.5,170.8,45z"/>
			<path class="st35" d="M161.5,52.1l-2.7,2.7c0,0,0.6,4,4.8,4.5c0,0,3.4-2.7,1.4-5.6S161.5,52.1,161.5,52.1z"/>
			<path class="st3" d="M165.4,71.9c0,0,0.1-0.4,0.4-0.6c0.4-0.2,0.7-0.5,0.7-0.4c0,0.1,0.1,0.3-0.1,0.5
				C166.2,71.6,165.9,72,165.4,71.9z"/>
			<path class="st2" d="M168.5,130.1H160c0,0-0.2-1.3,0.2-2.3c0.4-0.9,1.1-1.4,0.9-2.5c0.5,0.6,1.4,1.2,2.6,1c0.2,0.2,1,1.6,1.5,1.9
				C165.8,128.6,168.3,128.5,168.5,130.1z"/>
		</g>
		<g>
			<g>
				<path class="st2" d="M298,129.9l-0.2-48.1c0,0-0.4-3.5-3.4-3.5c-3.2,0-3.4,3.4-3.4,3.4s0,0.3,0.4,0.3c0.3,0,0.4-0.3,0.4-0.3
					s0.2-2.7,2.6-2.7c2.3,0,2.6,2.7,2.6,2.7l-0.3,48.1L298,129.9z"/>
				<path class="st2" d="M296.3,129.9h2l-0.2-2.1c0,0,0-0.3-0.4-0.3c-0.4,0-1.1-0.1-1.2,0.2C296.5,127.9,296.3,129.9,296.3,129.9z"
					/>
			</g>
			<path class="st3" d="M294.4,75.8l-0.1,0.7c0,0-3.4,0-4.2,3.6c0,0-0.2,1.5,0.9,1.2c1.1-0.3,0.9-1.1,2.5-1.5
				c1.6-0.4,2.6-0.7,2.8-1.9l0.3-1.3L294.4,75.8z"/>
			<path class="st35" d="M306.6,46.1c0,0-0.9,3.5-1.7,6.8c-0.3,1.3-0.6,2.6-0.8,3.5c-0.2,1-0.3,1.6-0.3,1.7
				c0.7,1.1-0.6,7.8-1.6,10.2c-0.1,0.2-0.2,0.5-0.4,0.7c-1.4,2.7-5,7.9-5,7.9s-1,0.1-1.7-0.2c-0.6-0.2-0.9-0.9-0.9-0.9
				c0.3-0.5,1.7-6.7,3.4-10.1c0.7-1.5,1.9-15.2,3.3-17C302,47.1,306.6,46.1,306.6,46.1z"/>
			<path class="st36" d="M303.8,58c0.7,1.1-0.6,7.8-1.6,10.2c-0.1,0.2-0.2,0.5-0.4,0.7c-1.3-5.8,0.9-13.9,0.9-13.9
				c0.5,0.2,1,0.7,1.3,1.3C303.8,57.3,303.7,58,303.8,58z"/>
			<path class="st46" d="M312.8,124.7c0,0,0.3,5.2-0.7,5.3c-0.1,0-5,0-5,0l-6.3,0c0,0,0.1-1.5,1.9-1.8c1.8-0.3,4.9-1.6,6-4
				C309.9,121.7,312.8,124.7,312.8,124.7z"/>
			<path class="st22" d="M322.2,124.8c0,0,0.3,5.2-0.7,5.3c-0.1,0-5,0-5,0l-6.3,0c0,0,0.1-1.5,1.9-1.8c1.8-0.3,4.9-1.6,6-4
				C319.3,121.7,322.2,124.8,322.2,124.8z"/>
			<path class="st9" d="M313.1,112.2c0.1,2.2,0.4,5,0.3,7.6c-0.2,3.6-0.3,6.6-0.3,6.6c-2.4,0.8-6.7-0.2-6.7-0.2s-1.5-9-2.7-16.3
				c-0.5-3.2-1-6-1.2-7.4c-0.5-4.3,0.8-26.9,0.8-26.9s6.4-4,9-1.9c2.6,2.1,4.2,4.2-0.2,27.2C311.9,102.7,312.8,107.2,313.1,112.2z"
				/>
			<path class="st2" d="M313.1,112.2c0.1,2.2,0.4,5.7,0.3,8.3c-2.2-2.4-6.5-7.3-9.7-10.6c-0.5-3.2-1-6-1.2-7.4
				c-0.5-4.3,0.8-26.9,0.8-26.9s6.4-4,9-1.9c2.6,2.1,4.2,4.2-0.2,27.2C311.9,102.7,312.8,107.2,313.1,112.2z"/>
			<path class="st9" d="M309.1,76.1c0,0,0.4,22.7,1.3,26.9c0.9,4.2,5.4,23.5,5.4,23.5s4.4,0.4,6.7-0.5c0,0-0.1-8.9-0.8-14.2
				c-0.7-4.9-2-9.4-1.8-11.2c2.6-23.3,0.8-25.3-1.9-27.2C315.2,71.6,309.1,76.1,309.1,76.1z"/>
			<path class="st3" d="M317.8,78.1c0,0-1.5,3,1.4,5.4c0,0,1.3,0.9,1.5-0.3c0.2-1.1,0-0.7,0.3-2.3c0.3-1.6-0.1-3.2-1-3.9L317.8,78.1
				z"/>
			<path class="st3" d="M305.2,40.9c0,0,1.7,2.7,1.4,5.2l2.6,6.3l4.7-7.1c0,0-2.5-2.7-3.4-6.4L305.2,40.9z"/>
			<path class="st3" d="M304.4,43.2c0,0,6.4,0.3,6.5-3.5c0.1-3.8,1.9-6.4-2.9-6.7c-3.9-0.3-5.2,1.3-5.6,2.6
				C302.1,36.8,302.1,43,304.4,43.2z"/>
			<path class="st35" d="M319.8,77.2c-1.4,0.1-3.3,0.3-5.5,0.4c-0.5,0-0.9,0.1-1.4,0.1c-6.9,0.3-9.6-0.8-9.6-0.8s-0.2-0.1-0.1-1
				c0.3-4.2,1.2-5.4,1.1-6.2c-0.2-1.8-4.5-16.4-4.5-16.4s-0.1-4.6,5.1-6.7c0.5-0.2,1.1-0.4,1.8-0.6c0.2,0.6,0.8,1.6,2.4,1.4
				c2.3-0.3,4-1.6,4.7-2.3c0.1,0,0.2,0,0.2,0c0.2,0.5,0.3,1,0.4,1.5c0.4,1.8,0.6,3.7,1.7,5.1c1.1,1.4,2,2.8,2.8,4.2
				c0.7,1.1,1.2,2.2,1.7,3.3C325,69.4,321.4,77.1,319.8,77.2z"/>
			<path class="st36" d="M319.8,77.2c-1.4,0.1-3.3,0.3-5.5,0.4c-0.6-11.2,4-22,4-22c0.2,0.1,0.3,0.3,0.5,0.4
				c0.8,0.8,1.3,1.9,1.7,3.3C321.8,64.5,320.6,72.7,319.8,77.2z"/>
			<path class="st47" d="M302.4,39.5c0,0-1.3,4.9,0.8,5.6c2.1,0.7,7.7,0.2,7.7-5.9c0,0-2.9,1.7-4.3,1.7c-1.4-0.1-2.3-0.9-3.6-0.2
				C303,40.7,302.6,40.7,302.4,39.5z"/>
			<path class="st35" d="M313.8,45.2c0,0,4.5,0.1,6.8,3.2c1.8,2.4,3.6,15,3.6,16.9c0,1.9-2.1,12.4-3.2,13.5c0,0-0.7,0.2-1.7,0
				c-1-0.2-1.7-0.8-1.7-0.8s0.6-11.6,0.6-12.7c0-1.6-4.9-11.3-4.9-11.3S310.8,49.3,313.8,45.2z"/>
			<path class="st47" d="M310.7,34.1c-0.1-0.4-0.6-0.6-0.6-0.6c-3.6-1.6-6.2,0.1-6.2,0.1c2.2-2.9,7.5-2.3,8.6,0.4
				c1.8,4.4-1.5,5.2-1.5,5.2s-3.3-1.4-1.4-3.2c0.6-0.6,1-1.1,1.1-1.5l0,0l0,0C310.6,34.4,310.7,34.3,310.7,34.1z"/>
		</g>
		<g>
			<path class="st2" d="M35.3,130.1c0,0,0-1.6,0.2-2.1c0.2-0.5,1-2.6,1-2.6h3.2c0,0,0.6,1.9,0.6,2.6c0,0.6,0,2.2,0,2.2L35.3,130.1
				L35.3,130.1z"/>
			<path class="st2" d="M55.7,130.1c0,0,0-1.6-0.2-2.1c-0.2-0.5-1-2.6-1-2.6h-3.2c0,0-0.6,1.9-0.6,2.6c0,0.6,0,2.2,0,2.2L55.7,130.1
				L55.7,130.1z"/>
			<path class="st3" d="M42.8,42c0,0-0.1,3.5-0.6,5.1l-3.5,2.5l13.3,2l-3.2-4.4c0,0-1-4.7-0.5-6.4C48.9,38.9,42.8,42,42.8,42z"/>
			<path class="st4" d="M42.8,42.4c0,0,1.1,2.5,3,2.5c2-0.1,2.4-2.3,2.4-2.3L42.8,42.4z"/>
			<path class="st5" d="M41.6,40.4c0,0-0.6-3.2-1.1-4.2c-0.4-1-0.8-5.3,4.1-5.5c0,0,1.9,0.2,2.9-0.4c0,0,0,0.6-0.3,0.9
				c0,0,1.7-0.4,3.1,1.1c1.3,1.5-0.9,6.7-0.8,7.9L41.6,40.4z"/>
			<path class="st3" d="M49.7,35.9v3.5c0,0.6-0.1,1.1-0.4,1.7l0,0c-0.4,0.9-1.1,1.6-1.8,2.2c-0.6,0.5-1.3,0.7-1.9,0.7
				c-0.5,0-1.2-0.3-1.8-0.7c-0.9-0.6-1.7-1.5-2.1-2.5l0,0v0c-0.1-0.3-0.2-0.7-0.2-1v-3.8c0-0.9,0.6-1.6,1.3-1.6h5.5
				C49.1,34.4,49.7,35.1,49.7,35.9z"/>
			<path class="st5" d="M41.6,37.9c0,0,0-2.2,1.8-2.6c1.8-0.3,5.7,1.1,6.3-0.5c0.6-1.6-7.6-1.6-8-0.6C41.1,35.3,41.6,37.9,41.6,37.9
				z"/>
			<path class="st9" d="M35.7,75.7c0,0,0.6,17.1-0.3,26.9c-0.8,9.8,0,23.4,0,23.4s2.7,1.5,5.6,0c0,0,3.2-18.9,3.2-23.4
				c0-4.8,3.5-26.1,3.5-26.1L35.7,75.7z"/>
			<path class="st9" d="M55.6,126c0,0-2.7,1.5-5.6,0c0,0-3.2-18.9-3.2-23.4c0-2-0.6-7-1.3-12.1c-1-6.9-2.1-14.1-2.1-14.1l12.4-0.8
				c0,0-1,17.2-0.2,26.9C56.4,112.4,55.6,126,55.6,126z"/>
			<path class="st36" d="M39.3,79.1c-2-0.3-3.5-0.6-3.5-0.6s-1.1,0.1-0.4-5.2c0.5-4,0.3-7.7,0.2-11.4c0-0.4,0-0.9,0-1.5
				c0.3,0.5,3.7,6.1,4.7,10.2C41,73.7,39.9,77.2,39.3,79.1z"/>
			<path class="st35" d="M53.4,47.9L53.4,47.9c-1.6-0.4-3.1-0.7-4.5-0.8c-1.2,1.6-2.1,2-3.3,2.5c-1.8-0.3-3.4-2.5-3.4-2.5
				c-2,0.2-3.3,0.6-3.9,0.7c-0.1,0-5.9,0.8-14.2,17.5c0,0,0.4,1.5,2.6,4.2c1.5,1.9,3.9,4.4,7.7,7.3c0,0,0.4-0.8,0.7-2
				c0,0-2.2-4.3-3.6-7.2c-0.6-1.4-1.1-2.5-1-2.6c0.2-0.2,2.9-2.5,4.9-4.3c0,0.4,0,0.8,0,1.2c0.1,3.7,0.3,7.4-0.2,11.4
				c-0.6,5.3,0.4,5.2,0.4,5.2s1.4,0.3,3.5,0.6c1.8,0.2,4.1,0.5,6.2,0.5c4.8,0,10.1-1,10.1-1c1.5,0-0.4-9.5-0.7-15.2
				c-0.1-1.3-0.1-2.5-0.2-3.6c1.8,1.6,5.9,5.1,6.2,5.3c0.1,0.1-0.3,1.2-1,2.6c-1.3,2.9-3.6,7.2-3.6,7.2c0.3,1.2,0.7,2,0.7,2
				c3.7-2.9,6.1-5.4,7.7-7.3c2.2-2.7,2.6-4.2,2.6-4.2C59,48.4,53.4,47.9,53.4,47.9z"/>
			<path class="st2" d="M46.8,102.6c0-2-0.6-7-1.3-12.1c0.7-3,2.6-6,2.6-6C50.3,91,46.8,102.6,46.8,102.6z"/>
			<path class="st3" d="M34.8,75.1c0,0,2-1.9,2.8-0.8c0.8,1,1,2.7,0.3,2.6c-0.6-0.1-1.9-0.7-2.1-0.4c-0.2,0.3-1,0.9-1.3,0.4
				C34.3,76.4,34.8,75.1,34.8,75.1z"/>
			<path class="st3" d="M35.2,74.9c-0.3,1.2-0.7,2-0.7,2c-3.7-2.9-6.1-5.4-7.7-7.3c1.2-0.1,2.8-0.5,4.8-1.9
				C33,70.6,35.2,74.9,35.2,74.9z"/>
			<path class="st3" d="M56.8,75.1c0,0-2-1.9-2.8-0.8s-1,2.7-0.3,2.6c0.6-0.1,1.9-0.7,2.1-0.4s1,0.9,1.3,0.4
				C57.3,76.4,56.8,75.1,56.8,75.1z"/>
			<path class="st3" d="M56.4,74.9c0.3,1.2,0.7,2,0.7,2c3.7-2.9,6.1-5.4,7.7-7.3c-1.2-0.1-2.8-0.5-4.8-1.9
				C58.6,70.6,56.4,74.9,56.4,74.9z"/>
			<path class="st5" d="M47.6,41.7v1.5c-0.6,0.5-1.3,0.7-1.9,0.7c-0.5,0-1.2-0.3-1.8-0.7v-1.5c0-0.9,0.7-1.6,1.6-1.6H46
				C46.9,40.1,47.6,40.8,47.6,41.7z"/>
			<path class="st36" d="M60.9,65c-0.3-0.2-4.4-3.8-6.2-5.4c0,0,1.8-1.4,2.9,0.6C58.7,62.3,60.9,65,60.9,65z"/>
			<path class="st5" d="M49.4,41.1c-0.7,1.7-2.5,2.9-3.7,2.9c-1.2,0-3.3-1.4-3.9-3.2l0,0v0c0,0,1.3,1.1,2.2,0.6h3.6
				C47.5,41.2,48.4,41.7,49.4,41.1z"/>
			<path class="st36" d="M67.3,65.3c0,0-0.4,1.5-2.6,4.2C62.2,69.5,67.3,65.3,67.3,65.3z"/>
			<path class="st3" d="M46.1,41.5h-0.8c-0.2,0-0.4-0.3-0.4-0.5c0,0,0.2-0.2,0.4-0.2h0.8c0.2,0,0.4,0.1,0.5,0.3
				C46.6,41.1,46.5,41.5,46.1,41.5z"/>
		</g>
	</g>
</g>
</svg>
